<svg xmlns="http://www.w3.org/2000/svg" viewBox="0 0 750 500"><g id="freepik--background-complete--inject-61"><g><g><g><g><path d="M673.734,323.397h-180.746c-3.232,0-5.862-2.63-5.862-5.862V54.262c0-3.232,2.63-5.862,5.862-5.862h180.746c3.232,0,5.862,2.629,5.862,5.862V317.535c0,3.233-2.63,5.862-5.862,5.862ZM492.988,48.65c-3.095,0-5.612,2.517-5.612,5.612V317.535c0,3.095,2.518,5.612,5.612,5.612h180.746c3.095,0,5.612-2.517,5.612-5.612V54.262c0-3.094-2.518-5.612-5.612-5.612h-180.746Z" style="fill:#e0e0e0;"></path><path d="M465.306,323.397h-180.747c-3.232,0-5.862-2.63-5.862-5.862V54.262c0-3.232,2.629-5.862,5.862-5.862h180.747c3.232,0,5.862,2.629,5.862,5.862V317.535c0,3.233-2.63,5.862-5.862,5.862ZM284.559,48.65c-3.094,0-5.612,2.517-5.612,5.612V317.535c0,3.095,2.518,5.612,5.612,5.612h180.747c3.095,0,5.612-2.517,5.612-5.612V54.262c0-3.094-2.518-5.612-5.612-5.612h-180.747Z" style="fill:#e0e0e0;"></path></g><path d="M257.012,323.397H76.266c-3.232,0-5.862-2.63-5.862-5.862V54.262c0-3.232,2.629-5.862,5.862-5.862h180.746c3.232,0,5.862,2.629,5.862,5.862V317.535c0,3.233-2.63,5.862-5.862,5.862ZM76.266,48.65c-3.094,0-5.612,2.517-5.612,5.612V317.535c0,3.095,2.518,5.612,5.612,5.612h180.746c3.095,0,5.612-2.517,5.612-5.612V54.262c0-3.094-2.517-5.612-5.612-5.612H76.266Z" style="fill:#e0e0e0;"></path></g><rect y="369.846" width="750" height=".12" style="fill:#e0e0e0;"></rect></g><g><rect x="653.626" y="413.843" width="55.729" height=".421" style="fill:#ebebeb;"></rect><rect x="495.044" y="418.408" width="14.627" height=".421" style="fill:#ebebeb;"></rect><rect x="40.645" y="401.046" width="72.675" height=".421" style="fill:#ebebeb;"></rect><rect x="128.299" y="401.046" width="10.655" height=".421" style="fill:#ebebeb;"></rect><rect x="173.586" y="408.15" width="157.613" height=".421" style="fill:#ebebeb;"></rect></g></g><path d="M612.767,164.654c-2.519-1.903-6.195-2.119-8.92-.523-3.617-7.308-13.695-10.534-20.883-6.683-1.875-7.875-9.634-13.928-17.729-13.831-8.095,.097-15.706,6.336-17.391,14.254-.268,1.258-.445,2.637-1.345,3.556-1.462,1.493-3.903,.992-5.987,.83-6.556-.511-13.152,4.091-14.935,10.42l90.28-.329c.791-3.057-.57-5.79-3.089-7.694Z" style="fill:#e0e0e0;"></path><path d="M330.824,108.491c-2.519-1.903-6.195-2.119-8.92-.523-3.617-7.308-13.695-10.534-20.883-6.683-1.875-7.875-9.634-13.928-17.729-13.831-8.095,.097-15.706,6.336-17.391,14.254-.268,1.258-.445,2.637-1.345,3.556-1.462,1.493-3.903,.992-5.987,.83-6.556-.511-13.152,4.091-14.935,10.42l90.28-.329c.791-3.057-.57-5.79-3.09-7.694Z" style="fill:#e0e0e0;"></path><path d="M99.761,78.974c-1.26-.952-3.098-1.06-4.46-.262-1.808-3.654-6.847-5.267-10.441-3.342-.938-3.938-4.817-6.964-8.865-6.916-4.048,.049-7.853,3.168-8.696,7.127-.134,.629-.222,1.318-.673,1.778-.731,.747-1.952,.496-2.993,.415-3.278-.256-6.576,2.046-7.467,5.21l45.14-.164c.395-1.528-.285-2.895-1.545-3.847Z" style="fill:#f0f0f0;"></path><path d="M544.451,85.133c-1.26-.952-3.098-1.06-4.46-.262-1.808-3.654-6.847-5.267-10.441-3.342-.938-3.938-4.817-6.964-8.865-6.916-4.047,.049-7.853,3.168-8.696,7.127-.134,.629-.223,1.318-.673,1.778-.731,.747-1.952,.496-2.993,.415-3.278-.256-6.576,2.046-7.468,5.21l45.14-.164c.395-1.528-.285-2.895-1.545-3.847Z" style="fill:#f0f0f0;"></path><path d="M411.756,55.64c-1.26-.952-3.098-1.06-4.46-.262-1.808-3.654-6.847-5.267-10.441-3.342-.938-3.938-4.817-6.964-8.865-6.916-4.047,.049-7.853,3.168-8.696,7.127-.134,.629-.222,1.319-.673,1.778-.731,.747-1.952,.496-2.993,.415-3.278-.256-6.576,2.046-7.467,5.21l45.14-.164c.395-1.528-.285-2.895-1.545-3.847Z" style="fill:#f0f0f0;"></path><path d="M125.453,217.269c-1.26-.952-3.098-1.06-4.46-.262-1.808-3.654-6.847-5.267-10.441-3.342-.938-3.938-4.817-6.964-8.865-6.916-4.048,.049-7.853,3.168-8.696,7.127-.134,.629-.222,1.318-.673,1.778-.731,.747-1.952,.496-2.993,.415-3.278-.256-6.576,2.046-7.467,5.21l45.14-.164c.395-1.528-.285-2.895-1.545-3.847Z" style="fill:#f0f0f0;"></path><path d="M701.274,128.435c-1.679-1.269-4.13-1.413-5.946-.349-2.411-4.872-9.129-7.022-13.92-4.455-1.25-5.25-6.422-9.285-11.818-9.22-5.396,.065-10.47,4.223-11.593,9.502-.178,.839-.297,1.758-.897,2.37-.974,.995-2.602,.661-3.991,.553-4.37-.341-8.767,2.727-9.956,6.946l60.18-.219c.527-2.038-.38-3.86-2.059-5.129Z" style="fill:#f0f0f0;"></path><g id="freepik--freepik--background-complete--inject-39--inject-61"><path d="M236.022,198.694v-4.974c-.05-.326-.355-.55-.681-.5-.258,.04-.46,.242-.5,.5v5.461c.007,.319,.264,.576,.584,.584,1.312,0,2.376,1.064,2.376,2.376s-1.064,2.376-2.376,2.376-2.376-1.064-2.376-2.376c0-.75-1.264-.75-1.181,0,.292,2.946,3.738,4.891,6.086,2.529,1.366-1.412,1.328-3.664-.084-5.03-.508-.492-1.152-.821-1.848-.945Z" style="fill:#e7e7e7;"></path><path d="M148.787,163.067v10.755l-11.325-11.311-.556,.556h-.792v102.075h14.243v-102.075h-1.57Zm-11.116,77.814l9.991,10.019h-9.963l-.028-10.019Zm0-25.317l9.963,9.963h-9.935l-.028-9.963Zm0-25.331l9.963,9.977h-9.935l-.028-9.977Zm0-25.317l9.963,9.963h-9.935l-.028-9.963Zm9.963,11.547l-9.963,9.963v-9.963h9.963Zm1.126,1.112v9.963h-9.949l9.949-9.963Zm-1.126,24.206l-9.963,9.977v-9.977h9.963Zm1.126,1.126v9.963h-9.949l9.949-9.963Zm-1.126,24.206l-9.963,9.963v-9.963h9.963Zm1.126,1.112v9.963h-9.949l9.949-9.963Zm-1.126,24.206l-9.963,9.963v-9.963h9.963Zm-8.851,11.116l9.977-9.977v9.977h-9.977Zm9.977-13.784l-9.949-9.977h9.977l-.028,9.977Zm0-25.317l-9.977-9.963h10.005l-.028,9.963Zm0-25.331l-9.977-9.963h10.005l-.028,9.963Z" style="fill:#f0f0f0;"></path><path d="M137.699,129.44v19.787h1.584v-7.587l8.143,8.143,.556-.556h.792v-19.787h-11.074Zm8.337,1.584l-6.795,6.795v-6.795h6.795Zm1.126,16.299l-6.809-6.809h6.809v6.809Zm-6.809-8.337l6.809-6.809v6.809h-6.809Z" style="fill:#f0f0f0;"></path><rect x="92.72" y="163.067" width="18.995" height="18.995" style="fill:#e0e0e0;"></rect><polygon points="235.688 190.454 234.632 190.454 234.632 153.951 146.203 124.618 140.353 124.618 92.998 154.021 92.442 153.118 140.047 123.576 146.369 123.576 146.453 123.604 235.688 153.187 235.688 190.454" style="fill:#e0e0e0;"></polygon><path d="M224.878,163.886h1.028l11.116-11.116H91.928v11.116H224.878Zm1.57-9.532h6.809l-6.809,6.809v-6.809Zm-132.936,7.92v-6.795l6.795,6.795h-6.795Zm7.906-1.112l-6.795-6.809h6.795v6.809Zm1.584-6.809h6.809l-6.809,6.809v-6.809Zm7.92,7.92h-6.809l6.809-6.795v6.795Zm1.57,0v-6.795l6.809,6.795h-6.809Zm7.92-1.112l-6.795-6.809h6.795v6.809Zm1.584-6.809h6.795l-6.795,6.809v-6.809Zm7.92,7.92h-6.836l6.809-6.795,.028,6.795Zm1.57,0v-6.795l6.809,6.795h-6.809Zm7.92-1.112l-6.795-6.809h6.795v6.809Zm1.584-6.809h6.795l-6.795,6.809v-6.809Zm7.906,7.92h-6.795l6.795-6.795v6.795Zm1.584,0v-6.795l6.795,6.795h-6.795Zm7.92-1.112l-6.809-6.809h6.809v6.809Zm1.57-6.809h6.809l-6.809,6.809v-6.809Zm7.92,7.92h-6.795l6.795-6.795v6.795Zm1.584,0v-6.795l6.795,6.795h-6.795Zm7.92-1.112l-6.809-6.809h6.809v6.809Zm1.57-6.809h6.809l-6.809,6.809v-6.809Zm7.92,7.92h-6.836l6.795-6.795,.042,6.795Zm1.584,0v-6.795l6.795,6.795h-6.795Zm7.906-1.112l-6.795-6.809h6.795v6.809Zm1.584-6.809h6.795l-6.795,6.809v-6.809Zm7.92,7.92h-6.809l6.809-6.795v6.795Zm1.57-7.92h6.809l-6.809,6.809v-6.809Zm7.92,7.92h-6.795l6.795-6.795v6.795Zm1.584,0v-6.795l6.795,6.795h-6.795Zm1.112-7.92h6.809v6.809l-6.809-6.809Z" style="fill:#f0f0f0;"></path><path d="M157.374,167.374h-29.18l1.07-12.283c.282-3.319,3.061-5.868,6.392-5.864h13.895c3.261,0,6.004,2.444,6.378,5.683l1.445,12.464Z" style="fill:#f0f0f0;"></path><rect x="132.891" y="154.327" width="5.614" height="5.614" style="fill:#f8f8f8;"></rect><rect x="139.978" y="154.327" width="5.614" height="5.614" style="fill:#f8f8f8;"></rect><rect x="147.064" y="154.327" width="5.614" height="5.614" style="fill:#f8f8f8;"></rect><circle cx="143.243" cy="126.411" r="3.821" style="fill:#e0e0e0;"></circle><path d="M235.424,196.999h0c-1.806-.008-3.265-1.474-3.265-3.279v-3.265h6.531v3.265c0,1.806-1.46,3.272-3.265,3.279Z" style="fill:#e0e0e0;"></path><rect x="392.969" y="128.989" width="106.076" height="239.784" style="fill:#e0e0e0;"></rect><polygon points="413.339 103.352 413.339 128.989 421.704 128.989 470.31 128.989 478.675 128.989 478.675 103.352 413.339 103.352" style="fill:#e0e0e0;"></polygon><rect x="390.787" y="126.362" width="110.454" height="2.765" style="fill:#f0f0f0;"></rect><rect x="410.574" y="100.6" width="70.88" height="2.765" style="fill:#f0f0f0;"></rect><rect x="370.862" y="128.989" width="106.076" height="239.784" style="fill:#f0f0f0;"></rect><polygon points="391.232 103.352 391.232 128.989 399.597 128.989 448.203 128.989 456.568 128.989 456.568 103.352 391.232 103.352" style="fill:#f0f0f0;"></polygon><rect x="377.642" y="135.783" width="13.576" height="13.576" style="fill:#fff;"></rect><rect x="403.946" y="135.783" width="13.576" height="13.576" style="fill:#fff;"></rect><rect x="430.25" y="135.783" width="13.576" height="13.576" style="fill:#fff;"></rect><rect x="456.568" y="135.783" width="13.576" height="13.576" style="fill:#fff;"></rect><rect x="377.642" y="160.461" width="13.576" height="13.576" style="fill:#fff;"></rect><rect x="403.946" y="160.461" width="13.576" height="13.576" style="fill:#fff;"></rect><rect x="430.25" y="160.461" width="13.576" height="13.576" style="fill:#fff;"></rect><rect x="456.568" y="160.461" width="13.576" height="13.576" style="fill:#fff;"></rect><rect x="377.642" y="185.139" width="13.576" height="13.576" style="fill:#fff;"></rect><rect x="403.946" y="185.139" width="13.576" height="13.576" style="fill:#fff;"></rect><rect x="430.25" y="185.139" width="13.576" height="13.576" style="fill:#fff;"></rect><rect x="403.946" y="114.454" width="13.576" height="13.576" style="fill:#fff;"></rect><rect x="430.25" y="114.454" width="13.576" height="13.576" style="fill:#fff;"></rect><rect x="456.568" y="185.139" width="13.576" height="13.576" style="fill:#fff;"></rect><rect x="377.642" y="209.803" width="13.576" height="13.576" style="fill:#fff;"></rect><rect x="403.946" y="209.803" width="13.576" height="13.576" style="fill:#fff;"></rect><rect x="430.25" y="209.803" width="13.576" height="13.576" style="fill:#fff;"></rect><rect x="456.568" y="209.803" width="13.576" height="13.576" style="fill:#fff;"></rect><rect x="377.642" y="234.481" width="13.576" height="13.576" style="fill:#fff;"></rect><rect x="403.946" y="234.481" width="13.576" height="13.576" style="fill:#fff;"></rect><rect x="430.25" y="234.481" width="13.576" height="13.576" style="fill:#fff;"></rect><rect x="456.568" y="234.481" width="13.576" height="13.576" style="fill:#fff;"></rect><rect x="377.642" y="259.159" width="13.576" height="13.576" style="fill:#fff;"></rect><rect x="403.946" y="259.159" width="13.576" height="13.576" style="fill:#fff;"></rect><rect x="430.25" y="259.159" width="13.576" height="13.576" style="fill:#fff;"></rect><rect x="456.568" y="259.159" width="13.576" height="13.576" style="fill:#fff;"></rect><rect x="377.642" y="283.837" width="13.576" height="13.576" style="fill:#fff;"></rect><rect x="403.946" y="283.837" width="13.576" height="13.576" style="fill:#fff;"></rect><rect x="430.25" y="283.837" width="13.576" height="13.576" style="fill:#fff;"></rect><rect x="456.568" y="283.837" width="13.576" height="13.576" style="fill:#fff;"></rect><rect x="377.642" y="307.161" width="13.576" height="13.576" style="fill:#fff;"></rect><rect x="403.946" y="307.161" width="13.576" height="13.576" style="fill:#fff;"></rect><rect x="430.25" y="307.161" width="13.576" height="13.576" style="fill:#fff;"></rect><rect x="456.568" y="307.161" width="13.576" height="13.576" style="fill:#fff;"></rect><rect x="377.642" y="330.484" width="13.576" height="13.576" style="fill:#fff;"></rect><rect x="403.946" y="330.484" width="13.576" height="13.576" style="fill:#fff;"></rect><rect x="430.25" y="330.484" width="13.576" height="13.576" style="fill:#fff;"></rect><rect x="456.568" y="330.484" width="13.576" height="13.576" style="fill:#fff;"></rect><rect x="377.642" y="353.808" width="13.576" height="13.576" style="fill:#fff;"></rect><rect x="403.946" y="353.808" width="13.576" height="13.576" style="fill:#fff;"></rect><rect x="430.25" y="353.808" width="13.576" height="13.576" style="fill:#fff;"></rect><rect x="456.568" y="353.808" width="13.576" height="13.576" style="fill:#fff;"></rect><rect x="368.666" y="126.362" width="110.454" height="2.765" style="fill:#f0f0f0;"></rect><rect x="388.453" y="100.6" width="70.88" height="2.765" style="fill:#f0f0f0;"></rect><rect x="536.146" y="202.654" width="96.53" height="166.91" style="fill:#e0e0e0;"></rect><rect x="534.159" y="200.264" width="100.505" height="2.515" style="fill:#f0f0f0;"></rect><rect x="516.026" y="202.654" width="96.53" height="166.91" style="fill:#f0f0f0;"></rect><rect x="522.209" y="208.838" width="12.353" height="12.353" style="fill:#fff;"></rect><rect x="546.137" y="208.838" width="12.353" height="12.353" style="fill:#fff;"></rect><rect x="570.078" y="208.838" width="12.353" height="12.353" style="fill:#fff;"></rect><rect x="594.02" y="208.838" width="12.353" height="12.353" style="fill:#fff;"></rect><rect x="522.209" y="231.292" width="12.353" height="12.353" style="fill:#fff;"></rect><rect x="546.137" y="231.292" width="12.353" height="12.353" style="fill:#fff;"></rect><rect x="570.078" y="231.292" width="12.353" height="12.353" style="fill:#fff;"></rect><rect x="594.02" y="231.292" width="12.353" height="12.353" style="fill:#fff;"></rect><rect x="522.209" y="253.733" width="12.353" height="12.353" style="fill:#fff;"></rect><rect x="546.137" y="253.733" width="12.353" height="12.353" style="fill:#fff;"></rect><rect x="570.078" y="253.733" width="12.353" height="12.353" style="fill:#fff;"></rect><rect x="594.02" y="253.733" width="12.353" height="12.353" style="fill:#fff;"></rect><rect x="522.209" y="276.188" width="12.353" height="12.353" style="fill:#fff;"></rect><rect x="546.137" y="276.188" width="12.353" height="12.353" style="fill:#fff;"></rect><rect x="570.078" y="276.188" width="12.353" height="12.353" style="fill:#fff;"></rect><rect x="594.02" y="276.188" width="12.353" height="12.353" style="fill:#fff;"></rect><rect x="522.209" y="298.643" width="12.353" height="12.353" style="fill:#fff;"></rect><rect x="546.137" y="298.643" width="12.353" height="12.353" style="fill:#fff;"></rect><rect x="570.078" y="298.643" width="12.353" height="12.353" style="fill:#fff;"></rect><rect x="594.02" y="298.643" width="12.353" height="12.353" style="fill:#fff;"></rect><rect x="522.209" y="321.098" width="12.353" height="12.353" style="fill:#fff;"></rect><rect x="546.137" y="321.098" width="12.353" height="12.353" style="fill:#fff;"></rect><rect x="570.078" y="321.098" width="12.353" height="12.353" style="fill:#fff;"></rect><rect x="594.02" y="321.098" width="12.353" height="12.353" style="fill:#fff;"></rect><rect x="522.209" y="343.552" width="12.353" height="12.353" style="fill:#fff;"></rect><rect x="546.137" y="343.552" width="12.353" height="12.353" style="fill:#fff;"></rect><rect x="570.078" y="343.552" width="12.353" height="12.353" style="fill:#fff;"></rect><rect x="594.02" y="343.552" width="12.353" height="12.353" style="fill:#fff;"></rect><rect x="514.038" y="200.264" width="100.505" height="2.515" style="fill:#f0f0f0;"></rect><rect x="244.817" y="186.133" width="106.077" height="183.418" style="fill:#e0e0e0;"></rect><polygon points="265.188 160.496 265.188 186.133 273.553 186.133 322.159 186.133 330.524 186.133 330.524 160.496 265.188 160.496" style="fill:#e0e0e0;"></polygon><rect x="242.636" y="183.507" width="110.453" height="2.765" style="fill:#f0f0f0;"></rect><rect x="262.423" y="157.745" width="70.88" height="2.765" style="fill:#f0f0f0;"></rect><rect x="222.71" y="186.133" width="106.077" height="183.418" style="fill:#f0f0f0;"></rect><polygon points="243.081 160.496 243.081 186.133 251.446 186.133 300.051 186.133 308.416 186.133 308.416 160.496 243.081 160.496" style="fill:#f0f0f0;"></polygon><rect x="229.491" y="192.928" width="13.576" height="13.576" style="fill:#fff;"></rect><rect x="255.795" y="192.928" width="13.576" height="13.576" style="fill:#fff;"></rect><rect x="282.098" y="192.928" width="13.576" height="13.576" style="fill:#fff;"></rect><rect x="308.416" y="192.928" width="13.576" height="13.576" style="fill:#fff;"></rect><rect x="229.491" y="217.606" width="13.576" height="13.576" style="fill:#fff;"></rect><rect x="255.795" y="217.606" width="13.576" height="13.576" style="fill:#fff;"></rect><rect x="282.098" y="217.606" width="13.576" height="13.576" style="fill:#fff;"></rect><rect x="308.416" y="217.606" width="13.576" height="13.576" style="fill:#fff;"></rect><rect x="229.491" y="242.284" width="13.576" height="13.576" style="fill:#fff;"></rect><rect x="255.795" y="242.284" width="13.576" height="13.576" style="fill:#fff;"></rect><rect x="282.098" y="242.284" width="13.576" height="13.576" style="fill:#fff;"></rect><rect x="255.795" y="171.598" width="13.576" height="13.576" style="fill:#fff;"></rect><rect x="282.098" y="171.598" width="13.576" height="13.576" style="fill:#fff;"></rect><rect x="308.416" y="242.284" width="13.576" height="13.576" style="fill:#fff;"></rect><rect x="229.491" y="266.948" width="13.576" height="13.576" style="fill:#fff;"></rect><rect x="255.795" y="266.948" width="13.576" height="13.576" style="fill:#fff;"></rect><rect x="282.098" y="266.948" width="13.576" height="13.576" style="fill:#fff;"></rect><rect x="308.416" y="266.948" width="13.576" height="13.576" style="fill:#fff;"></rect><rect x="229.491" y="291.626" width="13.576" height="13.576" style="fill:#fff;"></rect><rect x="255.795" y="291.626" width="13.576" height="13.576" style="fill:#fff;"></rect><rect x="282.098" y="291.626" width="13.576" height="13.576" style="fill:#fff;"></rect><rect x="308.416" y="291.626" width="13.576" height="13.576" style="fill:#fff;"></rect><rect x="229.491" y="316.304" width="13.576" height="13.576" style="fill:#fff;"></rect><rect x="255.795" y="316.304" width="13.576" height="13.576" style="fill:#fff;"></rect><rect x="282.098" y="316.304" width="13.576" height="13.576" style="fill:#fff;"></rect><rect x="308.416" y="316.304" width="13.576" height="13.576" style="fill:#fff;"></rect><rect x="229.491" y="340.982" width="13.576" height="13.576" style="fill:#fff;"></rect><rect x="255.795" y="340.982" width="13.576" height="13.576" style="fill:#fff;"></rect><rect x="282.098" y="340.982" width="13.576" height="13.576" style="fill:#fff;"></rect><rect x="308.416" y="340.982" width="13.576" height="13.576" style="fill:#fff;"></rect><rect x="220.515" y="183.507" width="110.453" height="2.765" style="fill:#f0f0f0;"></rect><rect x="240.302" y="157.745" width="70.88" height="2.765" style="fill:#f0f0f0;"></rect><polygon points="148.593 263.363 81.479 263.363 81.479 368.772 188.583 368.772 188.583 263.363 188.583 216.605 148.593 263.363" style="fill:#f0f0f0;"></polygon><rect x="188.583" y="216.619" width="19.995" height="152.153" style="fill:#e0e0e0;"></rect><rect x="86.467" y="284.72" width="15.938" height="15.938" style="fill:#e0e0e0;"></rect><rect x="86.467" y="311.538" width="15.938" height="15.938" style="fill:#e0e0e0;"></rect><rect x="86.467" y="338.356" width="15.938" height="15.938" style="fill:#e0e0e0;"></rect><rect x="113.34" y="284.72" width="15.938" height="15.938" style="fill:#e0e0e0;"></rect><rect x="115.119" y="284.72" width="14.173" height="15.938" style="fill:#fff; isolation:isolate; opacity:.3;"></rect><rect x="113.34" y="311.538" width="15.938" height="15.938" style="fill:#e0e0e0;"></rect><rect x="115.119" y="311.538" width="14.173" height="15.938" style="fill:#fff; isolation:isolate; opacity:.3;"></rect><rect x="113.34" y="338.356" width="15.938" height="15.938" style="fill:#e0e0e0;"></rect><rect x="115.119" y="338.356" width="14.173" height="15.938" style="fill:#fff; isolation:isolate; opacity:.3;"></rect><rect x="115.119" y="338.356" width="15.938" height="15.938" style="fill:#fff; isolation:isolate; opacity:.2;"></rect><rect x="140.214" y="284.72" width="15.938" height="15.938" style="fill:#e0e0e0;"></rect><rect x="141.992" y="284.72" width="14.173" height="15.938" style="fill:#fff; isolation:isolate; opacity:.3;"></rect><rect x="140.214" y="311.538" width="15.938" height="15.938" style="fill:#e0e0e0;"></rect><rect x="141.992" y="311.538" width="14.173" height="15.938" style="fill:#fff; isolation:isolate; opacity:.3;"></rect><rect x="140.214" y="338.356" width="15.938" height="15.938" style="fill:#e0e0e0;"></rect><rect x="141.992" y="338.356" width="14.173" height="15.938" style="fill:#fff; isolation:isolate; opacity:.3;"></rect><rect x="141.992" y="338.356" width="15.938" height="15.938" style="fill:#fff; isolation:isolate; opacity:.2;"></rect><rect x="167.087" y="284.72" width="15.938" height="15.938" style="fill:#e0e0e0;"></rect><rect x="168.866" y="284.72" width="14.173" height="15.938" style="fill:#fff; isolation:isolate; opacity:.3;"></rect><rect x="167.087" y="311.538" width="15.938" height="15.938" style="fill:#e0e0e0;"></rect><rect x="168.866" y="311.538" width="14.173" height="15.938" style="fill:#fff; isolation:isolate; opacity:.3;"></rect><rect x="167.087" y="338.356" width="15.938" height="15.938" style="fill:#e0e0e0;"></rect><rect x="168.866" y="338.356" width="14.173" height="15.938" style="fill:#fff; isolation:isolate; opacity:.3;"></rect><rect x="168.866" y="338.356" width="15.938" height="15.938" style="fill:#fff; isolation:isolate; opacity:.2;"></rect></g></g><g id="freepik--Car--inject-61"><g><g><polygon points="484.551 403.905 490.409 351.471 524.906 327.388 562.714 327.388 606.918 356.403 608.871 403.905 598.944 407.267 484.551 413.018 484.551 403.905" style="fill:#D7D9DB;"></polygon><polygon points="484.551 403.905 490.409 351.471 524.906 327.388 562.714 327.388 606.918 356.403 608.871 403.905 598.944 407.267 484.551 413.018 484.551 403.905" style="opacity:.4;"></polygon></g><g><ellipse cx="546.705" cy="385.158" rx="46.358" ry="46.253" style="fill:#263238;"></ellipse><ellipse cx="546.705" cy="385.158" rx="28.421" ry="28.357" style="fill:#fff; isolation:isolate; opacity:.4;"></ellipse><g style="opacity:.3;"><path d="M546.692,359.647h.014c1.253,0,2.27,1.017,2.27,2.27v14.526c0,1.253-1.017,2.269-2.269,2.269h-.015c-1.253,0-2.269-1.017-2.269-2.269v-14.526c0-1.253,1.017-2.27,2.27-2.27Z" style="fill:#fff;"></path></g><g style="opacity:.3;"><path d="M546.692,391.598h.014c1.253,0,2.27,1.017,2.27,2.27v14.526c0,1.253-1.017,2.269-2.269,2.269h-.015c-1.253,0-2.269-1.017-2.269-2.269v-14.526c0-1.253,1.017-2.27,2.27-2.27Z" style="fill:#fff;"></path></g><g style="opacity:.3;"><path d="M555.373,382.777c-1.084,.612-2.46,.231-3.073-.851h0c-.63-1.082-.263-2.468,.821-3.097l12.622-7.305,.006-.003c1.087-.623,2.474-.248,3.098,.836h0l.003,.006c.624,1.085,.249,2.469-.838,3.091l-12.607,7.305-.031,.018Z" style="fill:#fff;"></path></g><g style="opacity:.3;"><path d="M524.553,397.851h0l-.003-.006c-.624-1.085-.249-2.469,.838-3.091l12.607-7.305c1.088-.631,2.483-.265,3.119,.818h0c.63,1.089,.257,2.482-.835,3.112l-12.607,7.305c-1.092,.629-2.488,.256-3.119-.833Z" style="fill:#fff;"></path></g><g style="opacity:.3;"><path d="M568.842,397.915c-.627,1.083-2.016,1.453-3.101,.827l-12.622-7.305c-1.086-.635-1.452-2.026-.82-3.112h0c.631-1.082,2.02-1.448,3.103-.818l12.607,7.305,.006,.003c1.085,.626,1.456,2.011,.829,3.094h0l-.004,.006Z" style="fill:#fff;"></path></g><g style="opacity:.3;"><path d="M541.1,381.95c-.633,1.079-2.024,1.442-3.105,.81l-12.607-7.305-.006-.003c-1.085-.626-1.456-2.011-.829-3.094h0c.631-1.089,2.027-1.461,3.119-.833l12.607,7.305,.006,.003c1.085,.626,1.456,2.011,.829,3.094h0l-.013,.023Z" style="fill:#fff;"></path></g><path d="M546.707,381.342h0c2.111,0,3.822,1.707,3.822,3.813s-1.711,3.813-3.822,3.813-3.822-1.707-3.822-3.813,1.711-3.813,3.822-3.813Z" style="fill:#263238;"></path></g><g><polygon points="135.264 404.592 141.122 352.157 175.619 328.074 213.427 328.074 257.631 357.09 259.584 404.592 259.584 413.704 135.264 413.704 135.264 404.592" style="fill:#D7D9DB;"></polygon><polygon points="135.264 404.592 141.122 352.157 175.619 328.074 213.427 328.074 257.631 357.09 259.584 404.592 259.584 413.704 135.264 413.704 135.264 404.592" style="opacity:.5;"></polygon></g><path d="M246.055,318.891s36.371-22.478,69.776-31.844c33.405-9.366,59.641-17.08,59.641-17.08l-89.143,52.671-40.273-3.746Z" style="fill:#263238;"></path><path d="M632.402,318.035l8.66-8.66-.346-4.157h-36.718s-99.069-40.874-181.164-40.874-146.525,52.652-146.525,52.652l-26.326-1.386s-37.282,.473-56.809,3.118c-33.254,4.503-91.102,19.398-108.422,42.953,0,0,9.699,40.528,32.561,56.116h30.797v-34.158h.052c.557-26.214,21.939-47.303,48.287-47.303s47.73,21.089,48.287,47.303h.052v34.158h254.003v-34.158h.052c.557-26.214,21.939-47.303,48.286-47.303s47.73,21.089,48.287,47.303h.052v26.369c16.248-2.246,30.698-5.046,39.358-8.491,0,0,19.052-21.476,20.091-32.561l-22.516-50.92Z" style="fill:#D7D9DB;"></path><path d="M378.793,336.355c-25.897,1.277-68.482-5.97-103.469-12.482-27.155,1.166-55.16,3.111-78.911,6.106-54.109,6.823-88.416,36.01-88.416,36.01l-23.237-4.281c.096,.397,4.62,19.013,14.639,35.769,9.397,.405,26.794,1.113,48.713,1.812v-15.651h.052c.557-26.214,21.939-47.303,48.287-47.303s47.73,21.089,48.287,47.303h.052v17.613c47.154,.31,94.606-.546,125.009-4.118,80.011-9.4,107.209-15.009,138.184-70.377,0,0-83.104,7.325-129.189,9.598Z" style="opacity:.3;"></path><path d="M303.707,393.916c-19.019,0-32.126-.439-32.341-.447l-.121-.004v-44.605l.032-.035,26.64-29.884,.053-.003,177.764-8.55-.024,.151c-.016,.103-1.62,10.354-3.232,18.416-1.617,8.083-25.056,46.536-25.292,46.924l-.037,.039c-7.733,5.124-21.79,9.234-41.78,12.218-15.981,2.384-35.774,4.059-58.827,4.976-15.496,.617-30.424,.805-42.833,.805Zm-32.212-.693c2.316,.076,36.946,1.154,75.037-.36,36.188-1.44,82.982-5.583,100.455-17.138,.699-1.147,23.653-38.861,25.244-46.818,1.505-7.521,3.003-16.95,3.208-18.255l-177.405,8.533-26.539,29.771v44.268Z" style="fill:#263238;"></path><path d="M87.398,370.649s9.787-4.897,17.968,9.557c8.182,14.454,7.386,17.822,7.386,17.822l-13.355-.551c-4.471-7.47-8.421-16.569-12-26.828Z" style="fill:#263238;"></path><path d="M632.856,319.063h-23.985s3.597,11.233,11.993,15.617c8.395,4.385,19.452,1.252,19.852,2.157s-7.859-17.774-7.859-17.774Z" style="fill:#d7504d;"></path><path d="M196.449,329.96c54.11-6.823,130.3-8.2,168.206-7.322,37.906,.878,276.06-17.419,276.06-17.419h-36.718l-77.572,1.098-250.117,10.68-26.326-1.386s-37.282,.473-56.809,3.118c-33.254,4.503-91.102,19.398-108.422,42.953l23.281,4.289s34.307-29.187,88.416-36.01Z" style="fill:#fff; opacity:.3;"></path><path d="M654.588,370.774c-20.459,10.164-59.12,15.707-59.12,15.707v23.525c16.248-2.246,30.698-5.046,39.358-8.491,0,0,17.099-19.291,19.762-30.742Z" style="opacity:.3;"></path><path d="M95.394,359.824s9.55,2.238,11.341,1.641c1.791-.597,11.49-8.505,11.49-8.505,0,0-13.877-2.686-22.83,6.864Z" style="fill:#fff;"></path><g><ellipse cx="197.418" cy="385.845" rx="46.358" ry="46.253" style="fill:#263238;"></ellipse><ellipse cx="197.418" cy="385.845" rx="28.421" ry="28.357" style="fill:#fff; isolation:isolate; opacity:.4;"></ellipse><g style="opacity:.3;"><rect x="195.135" y="360.334" width="4.554" height="19.065" rx="2.264" ry="2.264" style="fill:#fff;"></rect></g><g style="opacity:.3;"><rect x="195.135" y="392.285" width="4.554" height="19.065" rx="2.264" ry="2.264" style="fill:#fff;"></rect></g><g style="opacity:.3;"><path d="M206.086,383.464c-1.084,.612-2.46,.231-3.073-.851h0c-.63-1.082-.263-2.468,.821-3.097l12.622-7.305,.006-.003c1.087-.623,2.474-.249,3.098,.836h0l.003,.006c.624,1.084,.249,2.469-.838,3.091l-12.607,7.305-.031,.018Z" style="fill:#fff;"></path></g><g style="opacity:.3;"><path d="M175.266,398.537h0l-.003-.006c-.624-1.085-.249-2.469,.838-3.091l12.607-7.305c1.088-.631,2.483-.265,3.119,.818h0c.63,1.09,.257,2.482-.835,3.112l-12.607,7.305c-1.092,.629-2.488,.256-3.119-.833Z" style="fill:#fff;"></path></g><g style="opacity:.3;"><path d="M219.555,398.602c-.627,1.083-2.016,1.453-3.101,.827l-12.622-7.305c-1.086-.635-1.453-2.026-.82-3.112h0c.631-1.082,2.02-1.448,3.103-.818l12.607,7.305,.006,.003c1.085,.626,1.456,2.011,.829,3.094h0l-.003,.006Z" style="fill:#fff;"></path></g><g style="opacity:.3;"><path d="M191.813,382.636c-.633,1.079-2.024,1.442-3.105,.81l-12.607-7.305-.006-.003c-1.085-.626-1.456-2.011-.829-3.094h0c.631-1.089,2.027-1.461,3.119-.833l12.607,7.305,.006,.003c1.085,.626,1.456,2.011,.829,3.094h0l-.013,.023Z" style="fill:#fff;"></path></g><path d="M197.419,382.029h0c2.111,0,3.822,1.707,3.822,3.813s-1.711,3.813-3.822,3.813-3.822-1.707-3.822-3.813,1.711-3.813,3.822-3.813Z" style="fill:#263238;"></path></g><path d="M244.788,417.797v-5.097s198.426,3.02,254.003-6.041v11.137H244.788Z" style="opacity:.5;"></path><path d="M117.313,417.797h30.797v-3.596l-35.914-.497c.861,.91,3.665,3.207,5.116,4.093Z" style="opacity:.5;"></path><path d="M297.975,319.063s198.056-7.844,228.451-12.746l4.412-8.94s-44.891-25.627-110.303-23.906c-65.412,1.721-122.559,45.592-122.559,45.592Z" style="fill:#263238;"></path><polygon points="475.218 278.276 470.186 311.045 482.805 309.909 485.417 280.577 475.218 278.276" style="opacity:.3;"></polygon><rect x="462.419" y="294.92" width="31.355" height=".249" transform="translate(110.105 719.556) rotate(-80.759)" style="fill:#263238;"></rect><polygon points="322.906 303.158 324.858 317.671 297.975 319.063 322.906 303.158" style="opacity:.3;"></polygon><g><path d="M318.368,308.129s-15.629,2.631-14.228,13.279c1.401,10.648,22.269,5.503,22.694,4.87,0,0-1.029-14.141-8.466-18.149Z" style="fill:#D7D9DB;"></path><path d="M318.368,308.129c-5.497,1.243-12.121,3.766-13.925,9.648-1.777,7.469,4.281,10.193,10.712,10.173,3.832,.048,8.124-.526,11.589-1.666-.812-6.55-2.367-14.407-8.376-18.156h0Zm0,0c6.116,3.686,7.728,11.592,8.56,18.184-.472,.349-.938,.388-1.458,.563-3.363,.88-6.841,1.337-10.32,1.311-6.55,.067-12.738-2.885-10.878-10.456,1.845-5.95,8.521-8.451,14.095-9.602h0Z" style="fill:#263238;"></path></g><path d="M326.834,303.158l198.887-5.637s-55.754-24.346-105.773-21.467c-50.02,2.879-93.114,27.104-93.114,27.104Z" style="fill:#fff; opacity:.2;"></path></g></g></svg>
