<svg xmlns="http://www.w3.org/2000/svg" viewBox="0 0 750 500"><g id="freepik--background-complete--inject-65"><path d="M382.83,159.27H196.44s18.48-29.36,46.92-29.36,37.35,20.26,37.35,20.26,19.19-11,35-11,29.48,14.55,29.48,14.55S367.41,145.89,382.83,159.27Z" style="fill:#ebebeb"></path><path d="M650.93,150.22H464.53s18.48-29.36,46.93-29.36,37.35,20.27,37.35,20.27,19.19-11,35-11,29.47,14.55,29.47,14.55S635.51,136.84,650.93,150.22Z" style="fill:#ebebeb"></path><path d="M176.63,215.27H89.53s19.46-16.41,34.8-16.41,19.86,10.94,19.86,10.94S155,204.69,165,205.61,176.63,215.27,176.63,215.27Z" style="fill:#ebebeb"></path><path d="M693.14,183.6H606s19.47-16.4,34.8-16.4,19.87,10.93,19.87,10.93,10.82-5.1,20.85-4.19A12.49,12.49,0,0,1,693.14,183.6Z" style="fill:#ebebeb"></path><path d="M565.5,44.76H478.39s19.47-16.4,34.8-16.4,19.87,10.93,19.87,10.93,10.82-5.1,20.85-4.19A12.49,12.49,0,0,1,565.5,44.76Z" style="fill:#ebebeb"></path><path d="M144,136.27H56.86s19.46-16.4,34.8-16.4,19.87,10.93,19.87,10.93,10.82-5.1,20.84-4.19A12.49,12.49,0,0,1,144,136.27Z" style="fill:#ebebeb"></path><path d="M669.9,261.69H582.79s19.47-16.4,34.8-16.4,19.87,10.94,19.87,10.94,10.82-5.11,20.85-4.2A12.5,12.5,0,0,1,669.9,261.69Z" style="fill:#ebebeb"></path><polygon points="375 143.57 375 313 688.21 313 688.21 205.79 661.03 205.79 661.03 238.79 654.04 238.79 654.04 220.12 619.49 220.12 619.49 249.7 614.92 249.7 614.92 159.01 584.89 159.01 584.89 199.33 569.49 199.33 569.49 223.04 564.83 223.04 564.83 208.13 537.53 208.13 537.53 252.62 529.55 252.62 529.55 216.45 504.58 216.45 504.58 188.97 487.61 188.97 487.61 173.33 467.97 173.33 467.97 242.73 461.36 242.73 461.36 166.43 429.01 166.43 429.01 207.88 424.54 207.88 424.54 174.05 391.73 174.05 391.73 143.57 375 143.57" style="fill:#ebebeb"></polygon><rect x="680.28" y="209.95" width="4.6" height="6.31" transform="translate(1365.15 426.2) rotate(180)" style="fill:#fff"></rect><rect x="672.31" y="209.95" width="4.6" height="6.31" transform="translate(1349.22 426.2) rotate(180)" style="fill:#fff"></rect><rect x="664.34" y="209.95" width="4.6" height="6.31" transform="translate(1333.28 426.2) rotate(180)" style="fill:#fff"></rect><rect x="680.28" y="219.44" width="4.6" height="6.31" transform="translate(1365.15 445.19) rotate(180)" style="fill:#fff"></rect><rect x="672.31" y="219.44" width="4.6" height="6.31" transform="translate(1349.22 445.19) rotate(180)" style="fill:#fff"></rect><rect x="664.34" y="219.44" width="4.6" height="6.31" transform="translate(1333.28 445.19) rotate(180)" style="fill:#fff"></rect><rect x="680.28" y="228.93" width="4.6" height="6.31" transform="translate(1365.15 464.17) rotate(180)" style="fill:#fff"></rect><rect x="672.31" y="228.93" width="4.6" height="6.31" transform="translate(1349.22 464.17) rotate(180)" style="fill:#fff"></rect><rect x="664.34" y="228.93" width="4.6" height="6.31" transform="translate(1333.28 464.17) rotate(180)" style="fill:#fff"></rect><rect x="680.28" y="238.42" width="4.6" height="6.31" transform="translate(1365.15 483.16) rotate(180)" style="fill:#fff"></rect><rect x="672.31" y="238.42" width="4.6" height="6.31" transform="translate(1349.22 483.16) rotate(180)" style="fill:#fff"></rect><rect x="664.34" y="238.42" width="4.6" height="6.31" transform="translate(1333.28 483.16) rotate(180)" style="fill:#fff"></rect><rect x="521.11" y="220.96" width="4.6" height="5.26" transform="translate(1046.82 447.18) rotate(180)" style="fill:#fff"></rect><rect x="513.14" y="220.96" width="4.6" height="5.26" transform="translate(1030.89 447.18) rotate(180)" style="fill:#fff"></rect><rect x="505.18" y="220.96" width="4.6" height="5.26" transform="translate(1014.95 447.18) rotate(180)" style="fill:#fff"></rect><rect x="521.11" y="228.88" width="4.6" height="5.26" transform="translate(1046.82 463.02) rotate(180)" style="fill:#fff"></rect><rect x="513.14" y="228.88" width="4.6" height="5.26" transform="translate(1030.89 463.02) rotate(180)" style="fill:#fff"></rect><rect x="505.18" y="228.88" width="4.6" height="5.26" transform="translate(1014.95 463.02) rotate(180)" style="fill:#fff"></rect><rect x="521.11" y="236.8" width="4.6" height="5.26" transform="translate(1046.82 478.86) rotate(180)" style="fill:#fff"></rect><rect x="513.14" y="236.8" width="4.6" height="5.26" transform="translate(1030.89 478.86) rotate(180)" style="fill:#fff"></rect><rect x="505.18" y="236.8" width="4.6" height="5.26" transform="translate(1014.95 478.86) rotate(180)" style="fill:#fff"></rect><rect x="521.11" y="244.72" width="4.6" height="5.26" transform="translate(1046.82 494.69) rotate(180)" style="fill:#fff"></rect><rect x="513.14" y="244.72" width="4.6" height="5.26" transform="translate(1030.89 494.69) rotate(180)" style="fill:#fff"></rect><rect x="505.18" y="244.72" width="4.6" height="5.26" transform="translate(1014.95 494.69) rotate(180)" style="fill:#fff"></rect><rect x="521.11" y="252.83" width="4.6" height="5.26" transform="translate(1046.82 510.92) rotate(180)" style="fill:#fff"></rect><rect x="513.14" y="252.83" width="4.6" height="5.26" transform="translate(1030.89 510.92) rotate(180)" style="fill:#fff"></rect><rect x="505.18" y="252.83" width="4.6" height="5.26" transform="translate(1014.95 510.92) rotate(180)" style="fill:#fff"></rect><rect x="521.11" y="260.95" width="4.6" height="5.26" transform="translate(1046.82 527.16) rotate(180)" style="fill:#fff"></rect><rect x="513.14" y="260.95" width="4.6" height="5.26" transform="translate(1030.89 527.16) rotate(180)" style="fill:#fff"></rect><rect x="505.18" y="260.95" width="4.6" height="5.26" transform="translate(1014.95 527.16) rotate(180)" style="fill:#fff"></rect><rect x="521.11" y="269.06" width="4.6" height="5.26" transform="translate(1046.82 543.39) rotate(180)" style="fill:#fff"></rect><rect x="513.14" y="269.06" width="4.6" height="5.26" transform="translate(1030.89 543.39) rotate(180)" style="fill:#fff"></rect><rect x="505.18" y="269.06" width="4.6" height="5.26" transform="translate(1014.95 543.39) rotate(180)" style="fill:#fff"></rect><rect x="521.11" y="277.18" width="4.6" height="5.26" transform="translate(1046.82 559.62) rotate(180)" style="fill:#fff"></rect><rect x="513.14" y="277.18" width="4.6" height="5.26" transform="translate(1030.89 559.62) rotate(180)" style="fill:#fff"></rect><rect x="505.18" y="277.18" width="4.6" height="5.26" transform="translate(1014.95 559.62) rotate(180)" style="fill:#fff"></rect><rect x="623.65" y="224.16" width="26.47" height="3.95" transform="translate(1273.77 452.27) rotate(180)" style="fill:#fff"></rect><rect x="623.65" y="231.82" width="26.47" height="3.95" transform="translate(1273.77 467.58) rotate(180)" style="fill:#fff"></rect><rect x="623.65" y="239.47" width="26.47" height="3.95" transform="translate(1273.77 482.89) rotate(180)" style="fill:#fff"></rect><rect x="623.65" y="247.13" width="26.47" height="3.95" transform="translate(1273.77 498.2) rotate(180)" style="fill:#fff"></rect><rect x="623.65" y="254.78" width="26.47" height="3.95" transform="translate(1273.77 513.51) rotate(180)" style="fill:#fff"></rect><rect x="623.65" y="262.44" width="26.47" height="3.95" transform="translate(1273.77 528.82) rotate(180)" style="fill:#fff"></rect><rect x="623.65" y="270.09" width="26.47" height="3.95" transform="translate(1273.77 544.14) rotate(180)" style="fill:#fff"></rect><rect x="623.65" y="277.75" width="26.47" height="3.95" transform="translate(1273.77 559.45) rotate(180)" style="fill:#fff"></rect><rect x="433.12" y="170.11" width="24.33" height="3.95" transform="translate(890.56 344.16) rotate(180)" style="fill:#fff"></rect><rect x="433.12" y="177.77" width="24.33" height="3.95" transform="translate(890.56 359.48) rotate(180)" style="fill:#fff"></rect><rect x="433.12" y="185.42" width="24.33" height="3.95" transform="translate(890.56 374.79) rotate(180)" style="fill:#fff"></rect><rect x="433.12" y="193.08" width="24.33" height="3.95" transform="translate(890.56 390.1) rotate(180)" style="fill:#fff"></rect><rect x="433.12" y="200.73" width="24.33" height="3.95" style="fill:#fff"></rect><rect x="433.12" y="208.39" width="24.33" height="3.95" transform="translate(890.56 420.72) rotate(180)" style="fill:#fff"></rect><rect x="433.12" y="216.04" width="24.33" height="3.95" transform="translate(890.56 436.03) rotate(180)" style="fill:#fff"></rect><rect x="433.12" y="223.7" width="24.33" height="3.95" transform="translate(890.56 451.35) rotate(180)" style="fill:#fff"></rect><rect x="433.12" y="230.97" width="24.33" height="3.95" transform="translate(890.56 465.89) rotate(180)" style="fill:#fff"></rect><rect x="433.12" y="238.25" width="24.33" height="3.95" transform="translate(890.56 480.44) rotate(180)" style="fill:#fff"></rect><rect x="433.12" y="245.52" width="24.33" height="3.95" transform="translate(890.56 494.99) rotate(180)" style="fill:#fff"></rect><rect x="433.12" y="252.8" width="24.33" height="3.95" transform="translate(890.56 509.54) rotate(180)" style="fill:#fff"></rect><rect x="393.77" y="179.36" width="25.7" height="3.95" transform="translate(813.25 362.66) rotate(180)" style="fill:#fff"></rect><rect x="393.77" y="187.01" width="25.7" height="3.95" transform="translate(813.25 377.97) rotate(180)" style="fill:#fff"></rect><rect x="393.77" y="194.67" width="25.7" height="3.95" transform="translate(813.25 393.28) rotate(180)" style="fill:#fff"></rect><rect x="393.77" y="202.32" width="25.7" height="3.95" transform="translate(813.25 408.59) rotate(180)" style="fill:#fff"></rect><rect x="393.77" y="209.98" width="25.7" height="3.95" transform="translate(813.25 423.91) rotate(180)" style="fill:#fff"></rect><rect x="393.77" y="217.64" width="25.7" height="3.95" transform="translate(813.25 439.22) rotate(180)" style="fill:#fff"></rect><rect x="393.77" y="225.29" width="25.7" height="3.95" transform="translate(813.25 454.53) rotate(180)" style="fill:#fff"></rect><rect x="393.77" y="232.95" width="25.7" height="3.95" transform="translate(813.25 469.84) rotate(180)" style="fill:#fff"></rect><rect x="393.77" y="239.8" width="25.7" height="3.95" transform="translate(813.25 483.54) rotate(180)" style="fill:#fff"></rect><rect x="393.77" y="246.65" width="25.7" height="3.95" transform="translate(813.25 497.25) rotate(180)" style="fill:#fff"></rect><rect x="393.77" y="253.5" width="25.7" height="3.95" transform="translate(813.25 510.95) rotate(180)" style="fill:#fff"></rect><rect x="548.67" y="211.7" width="8.17" height="3.81" transform="translate(1105.51 427.21) rotate(180)" style="fill:#fff"></rect><rect x="548.67" y="219.09" width="8.17" height="3.81" transform="translate(1105.51 442) rotate(180)" style="fill:#fff"></rect><rect x="548.67" y="226.49" width="8.17" height="3.81" transform="translate(1105.51 456.78) rotate(180)" style="fill:#fff"></rect><rect x="548.67" y="233.88" width="8.17" height="3.81" transform="translate(1105.51 471.57) rotate(180)" style="fill:#fff"></rect><rect x="548.67" y="241.27" width="8.17" height="3.81" transform="translate(1105.51 486.36) rotate(180)" style="fill:#fff"></rect><rect x="548.67" y="248.67" width="8.17" height="3.81" transform="translate(1105.51 501.14) rotate(180)" style="fill:#fff"></rect><rect x="548.67" y="256.06" width="8.17" height="3.81" transform="translate(1105.51 515.93) rotate(180)" style="fill:#fff"></rect><rect x="548.67" y="263.45" width="8.17" height="3.81" transform="translate(1105.51 530.72) rotate(180)" style="fill:#fff"></rect><rect x="537.55" y="211.7" width="8.17" height="3.81" transform="translate(1083.27 427.21) rotate(180)" style="fill:#fff"></rect><rect x="537.55" y="219.09" width="8.17" height="3.81" transform="translate(1083.27 442) rotate(180)" style="fill:#fff"></rect><rect x="537.55" y="226.49" width="8.17" height="3.81" transform="translate(1083.27 456.78) rotate(180)" style="fill:#fff"></rect><rect x="537.55" y="233.88" width="8.17" height="3.81" transform="translate(1083.27 471.57) rotate(180)" style="fill:#fff"></rect><rect x="537.55" y="241.27" width="8.17" height="3.81" transform="translate(1083.27 486.36) rotate(180)" style="fill:#fff"></rect><rect x="537.55" y="248.67" width="8.17" height="3.81" transform="translate(1083.27 501.14) rotate(180)" style="fill:#fff"></rect><rect x="537.55" y="256.06" width="8.17" height="3.81" transform="translate(1083.27 515.93) rotate(180)" style="fill:#fff"></rect><rect x="537.55" y="263.45" width="8.17" height="3.81" transform="translate(1083.27 530.72) rotate(180)" style="fill:#fff"></rect><rect x="601.85" y="163.42" width="8.51" height="6.01" transform="translate(1212.21 332.84) rotate(180)" style="fill:#fff"></rect><rect x="589.15" y="163.42" width="8.51" height="6.01" transform="translate(1186.82 332.84) rotate(180)" style="fill:#fff"></rect><rect x="601.85" y="172.24" width="8.51" height="6.01" transform="translate(1212.21 350.49) rotate(180)" style="fill:#fff"></rect><rect x="589.15" y="172.24" width="8.51" height="6.01" transform="translate(1186.82 350.49) rotate(180)" style="fill:#fff"></rect><rect x="601.85" y="181.07" width="8.51" height="6.01" transform="translate(1212.21 368.15) rotate(180)" style="fill:#fff"></rect><rect x="589.15" y="181.07" width="8.51" height="6.01" transform="translate(1186.82 368.15) rotate(180)" style="fill:#fff"></rect><rect x="601.85" y="189.9" width="8.51" height="6.01" transform="translate(1212.21 385.8) rotate(180)" style="fill:#fff"></rect><rect x="589.15" y="189.9" width="8.51" height="6.01" transform="translate(1186.82 385.8) rotate(180)" style="fill:#fff"></rect><rect x="601.85" y="198.72" width="8.51" height="6.01" transform="translate(1212.21 403.46) rotate(180)" style="fill:#fff"></rect><rect x="589.15" y="198.72" width="8.51" height="6.01" transform="translate(1186.82 403.46) rotate(180)" style="fill:#fff"></rect><rect x="573.42" y="201.93" width="8.52" height="6.01" transform="translate(1155.35 409.86) rotate(180)" style="fill:#fff"></rect><rect x="573.42" y="210.75" width="8.52" height="6.01" transform="translate(1155.35 427.51) rotate(180)" style="fill:#fff"></rect><rect x="573.42" y="219.58" width="8.52" height="6.01" transform="translate(1155.35 445.17) rotate(180)" style="fill:#fff"></rect><rect x="573.42" y="228.41" width="8.52" height="6.01" transform="translate(1155.35 462.82) rotate(180)" style="fill:#fff"></rect><rect x="573.42" y="237.23" width="8.52" height="6.01" transform="translate(1155.35 480.48) rotate(180)" style="fill:#fff"></rect><rect x="573.42" y="246.06" width="8.52" height="6.01" transform="translate(1155.35 498.13) rotate(180)" style="fill:#fff"></rect><rect x="601.85" y="207.45" width="8.51" height="6.01" transform="translate(1212.21 420.9) rotate(180)" style="fill:#fff"></rect><rect x="589.15" y="207.45" width="8.51" height="6.01" transform="translate(1186.82 420.9) rotate(180)" style="fill:#fff"></rect><rect x="573.42" y="254.78" width="8.52" height="6.01" transform="translate(1155.35 515.57) rotate(180)" style="fill:#fff"></rect><rect x="601.85" y="216.17" width="8.51" height="6.01" transform="translate(1212.21 438.34) rotate(180)" style="fill:#fff"></rect><rect x="589.15" y="216.17" width="8.51" height="6.01" transform="translate(1186.82 438.34) rotate(180)" style="fill:#fff"></rect><rect x="573.42" y="263.5" width="8.52" height="6.01" transform="translate(1155.35 533.02) rotate(180)" style="fill:#fff"></rect><rect x="601.85" y="224.89" width="8.51" height="6.01" transform="translate(1212.21 455.79) rotate(180)" style="fill:#fff"></rect><rect x="589.15" y="224.89" width="8.51" height="6.01" transform="translate(1186.82 455.79) rotate(180)" style="fill:#fff"></rect><rect x="573.42" y="272.23" width="8.52" height="6.01" transform="translate(1155.35 550.46) rotate(180)" style="fill:#fff"></rect><rect x="601.85" y="233.61" width="8.51" height="6.01" transform="translate(1212.21 473.23) rotate(180)" style="fill:#fff"></rect><rect x="589.15" y="233.61" width="8.51" height="6.01" transform="translate(1186.82 473.23) rotate(180)" style="fill:#fff"></rect><rect x="601.85" y="242.33" width="8.51" height="6.01" transform="translate(1212.21 490.68) rotate(180)" style="fill:#fff"></rect><rect x="589.15" y="242.33" width="8.51" height="6.01" transform="translate(1186.82 490.68) rotate(180)" style="fill:#fff"></rect><rect x="496.51" y="192.85" width="4.6" height="5.26" transform="translate(997.62 390.96) rotate(180)" style="fill:#fff"></rect><rect x="488.54" y="192.85" width="4.6" height="5.26" transform="translate(981.69 390.96) rotate(180)" style="fill:#fff"></rect><rect x="496.51" y="200.77" width="4.6" height="5.26" transform="translate(997.62 406.8) rotate(180)" style="fill:#fff"></rect><rect x="488.54" y="200.77" width="4.6" height="5.26" transform="translate(981.69 406.8) rotate(180)" style="fill:#fff"></rect><rect x="496.51" y="208.69" width="4.6" height="5.26" transform="translate(997.62 422.64) rotate(180)" style="fill:#fff"></rect><rect x="488.54" y="208.69" width="4.6" height="5.26" transform="translate(981.69 422.64) rotate(180)" style="fill:#fff"></rect><rect x="496.51" y="216.61" width="4.6" height="5.26" transform="translate(997.62 438.47) rotate(180)" style="fill:#fff"></rect><rect x="488.54" y="216.61" width="4.6" height="5.26" transform="translate(981.69 438.47) rotate(180)" style="fill:#fff"></rect><rect x="496.51" y="224.72" width="4.6" height="5.26" transform="translate(997.62 454.71) rotate(180)" style="fill:#fff"></rect><rect x="488.54" y="224.72" width="4.6" height="5.26" transform="translate(981.69 454.71) rotate(180)" style="fill:#fff"></rect><rect x="496.51" y="232.84" width="4.6" height="5.26" transform="translate(997.62 470.94) rotate(180)" style="fill:#fff"></rect><rect x="488.54" y="232.84" width="4.6" height="5.26" transform="translate(981.69 470.94) rotate(180)" style="fill:#fff"></rect><rect x="496.51" y="240.95" width="4.6" height="5.26" transform="translate(997.62 487.17) rotate(180)" style="fill:#fff"></rect><rect x="488.54" y="240.95" width="4.6" height="5.26" transform="translate(981.69 487.17) rotate(180)" style="fill:#fff"></rect><rect x="496.51" y="249.07" width="4.6" height="5.26" transform="translate(997.62 503.4) rotate(180)" style="fill:#fff"></rect><rect x="488.54" y="249.07" width="4.6" height="5.26" transform="translate(981.69 503.4) rotate(180)" style="fill:#fff"></rect><rect x="496.51" y="257.27" width="4.6" height="5.26" transform="translate(997.62 519.8) rotate(180)" style="fill:#fff"></rect><rect x="488.54" y="257.27" width="4.6" height="5.26" transform="translate(981.69 519.8) rotate(180)" style="fill:#fff"></rect><rect x="496.51" y="265.47" width="4.6" height="5.26" transform="translate(997.62 536.2) rotate(180)" style="fill:#fff"></rect><rect x="488.54" y="265.47" width="4.6" height="5.26" transform="translate(981.69 536.2) rotate(180)" style="fill:#fff"></rect><rect x="496.51" y="273.67" width="4.6" height="5.26" transform="translate(997.62 552.61) rotate(180)" style="fill:#fff"></rect><rect x="488.54" y="273.67" width="4.6" height="5.26" transform="translate(981.69 552.61) rotate(180)" style="fill:#fff"></rect><rect x="384.25" y="146.37" width="4.6" height="6.2" transform="translate(773.1 298.93) rotate(180)" style="fill:#fff"></rect><rect x="376.28" y="146.37" width="4.6" height="6.2" transform="translate(757.16 298.93) rotate(180)" style="fill:#fff"></rect><rect x="384.25" y="155.7" width="4.6" height="6.2" transform="translate(773.1 317.59) rotate(180)" style="fill:#fff"></rect><rect x="376.28" y="155.7" width="4.6" height="6.2" transform="translate(757.16 317.59) rotate(180)" style="fill:#fff"></rect><rect x="384.25" y="165.03" width="4.6" height="6.2" transform="translate(773.1 336.25) rotate(180)" style="fill:#fff"></rect><rect x="376.28" y="165.03" width="4.6" height="6.2" transform="translate(757.16 336.25) rotate(180)" style="fill:#fff"></rect><rect x="384.25" y="174.36" width="4.6" height="6.2" transform="translate(773.1 354.91) rotate(180)" style="fill:#fff"></rect><rect x="376.28" y="174.36" width="4.6" height="6.2" transform="translate(757.16 354.91) rotate(180)" style="fill:#fff"></rect><rect x="384.25" y="183.92" width="4.6" height="6.2" transform="translate(773.1 374.03) rotate(180)" style="fill:#fff"></rect><rect x="376.28" y="183.92" width="4.6" height="6.2" transform="translate(757.16 374.03) rotate(180)" style="fill:#fff"></rect><rect x="384.25" y="193.48" width="4.6" height="6.2" transform="translate(773.1 393.16) rotate(180)" style="fill:#fff"></rect><rect x="376.28" y="193.48" width="4.6" height="6.2" transform="translate(757.16 393.16) rotate(180)" style="fill:#fff"></rect><rect x="384.25" y="203.04" width="4.6" height="6.2" transform="translate(773.1 412.28) rotate(180)" style="fill:#fff"></rect><rect x="376.28" y="203.04" width="4.6" height="6.2" transform="translate(757.16 412.28) rotate(180)" style="fill:#fff"></rect><rect x="384.25" y="212.6" width="4.6" height="6.2" transform="translate(773.1 431.4) rotate(180)" style="fill:#fff"></rect><rect x="376.28" y="212.6" width="4.6" height="6.2" transform="translate(757.16 431.4) rotate(180)" style="fill:#fff"></rect><rect x="384.25" y="222.26" width="4.6" height="6.2" transform="translate(773.1 450.72) rotate(180)" style="fill:#fff"></rect><rect x="376.28" y="222.26" width="4.6" height="6.2" transform="translate(757.16 450.72) rotate(180)" style="fill:#fff"></rect><rect x="384.25" y="231.92" width="4.6" height="6.2" transform="translate(773.1 470.05) rotate(180)" style="fill:#fff"></rect><rect x="376.28" y="231.92" width="4.6" height="6.2" transform="translate(757.16 470.05) rotate(180)" style="fill:#fff"></rect><rect x="384.25" y="241.59" width="4.6" height="6.2" transform="translate(773.1 489.37) rotate(180)" style="fill:#fff"></rect><rect x="376.28" y="241.59" width="4.6" height="6.2" transform="translate(757.16 489.37) rotate(180)" style="fill:#fff"></rect><rect x="384.25" y="251.25" width="4.6" height="6.2" transform="translate(773.1 508.7) rotate(180)" style="fill:#fff"></rect><rect x="376.28" y="251.25" width="4.6" height="6.2" transform="translate(757.16 508.7) rotate(180)" style="fill:#fff"></rect><rect x="479.47" y="192.85" width="4.6" height="5.26" transform="translate(963.54 390.96) rotate(180)" style="fill:#fff"></rect><rect x="471.5" y="192.85" width="4.6" height="5.26" transform="translate(947.61 390.96) rotate(180)" style="fill:#fff"></rect><rect x="479.47" y="184.73" width="4.6" height="5.26" transform="translate(963.54 374.72) rotate(180)" style="fill:#fff"></rect><rect x="471.5" y="184.73" width="4.6" height="5.26" transform="translate(947.61 374.72) rotate(180)" style="fill:#fff"></rect><rect x="479.47" y="176.61" width="4.6" height="5.26" transform="translate(963.54 358.48) rotate(180)" style="fill:#fff"></rect><rect x="471.5" y="176.61" width="4.6" height="5.26" transform="translate(947.61 358.48) rotate(180)" style="fill:#fff"></rect><rect x="479.47" y="200.77" width="4.6" height="5.26" transform="translate(963.54 406.8) rotate(180)" style="fill:#fff"></rect><rect x="471.5" y="200.77" width="4.6" height="5.26" transform="translate(947.61 406.8) rotate(180)" style="fill:#fff"></rect><rect x="479.47" y="208.69" width="4.6" height="5.26" transform="translate(963.54 422.64) rotate(180)" style="fill:#fff"></rect><rect x="471.5" y="208.69" width="4.6" height="5.26" transform="translate(947.61 422.64) rotate(180)" style="fill:#fff"></rect><rect x="479.47" y="216.61" width="4.6" height="5.26" transform="translate(963.54 438.47) rotate(180)" style="fill:#fff"></rect><rect x="471.5" y="216.61" width="4.6" height="5.26" transform="translate(947.61 438.47) rotate(180)" style="fill:#fff"></rect><rect x="479.47" y="224.72" width="4.6" height="5.26" transform="translate(963.54 454.71) rotate(180)" style="fill:#fff"></rect><rect x="471.5" y="224.72" width="4.6" height="5.26" transform="translate(947.61 454.71) rotate(180)" style="fill:#fff"></rect><rect x="479.47" y="232.84" width="4.6" height="5.26" transform="translate(963.54 470.94) rotate(180)" style="fill:#fff"></rect><rect x="471.5" y="232.84" width="4.6" height="5.26" transform="translate(947.61 470.94) rotate(180)" style="fill:#fff"></rect><rect x="479.47" y="240.95" width="4.6" height="5.26" transform="translate(963.54 487.17) rotate(180)" style="fill:#fff"></rect><rect x="471.5" y="240.95" width="4.6" height="5.26" transform="translate(947.61 487.17) rotate(180)" style="fill:#fff"></rect><rect x="479.47" y="249.07" width="4.6" height="5.26" transform="translate(963.54 503.4) rotate(180)" style="fill:#fff"></rect><rect x="471.5" y="249.07" width="4.6" height="5.26" transform="translate(947.61 503.4) rotate(180)" style="fill:#fff"></rect><rect x="479.47" y="257.27" width="4.6" height="5.26" transform="translate(963.54 519.8) rotate(180)" style="fill:#fff"></rect><rect x="471.5" y="257.27" width="4.6" height="5.26" transform="translate(947.61 519.8) rotate(180)" style="fill:#fff"></rect><rect x="479.47" y="265.47" width="4.6" height="5.26" transform="translate(963.54 536.2) rotate(180)" style="fill:#fff"></rect><rect x="471.5" y="265.47" width="4.6" height="5.26" transform="translate(947.61 536.2) rotate(180)" style="fill:#fff"></rect><rect x="479.47" y="273.67" width="4.6" height="5.26" transform="translate(963.54 552.61) rotate(180)" style="fill:#fff"></rect><rect x="471.5" y="273.67" width="4.6" height="5.26" transform="translate(947.61 552.61) rotate(180)" style="fill:#fff"></rect><polygon points="61.8 143.57 61.8 313 375 313 375 205.79 347.83 205.79 347.83 238.79 340.83 238.79 340.83 220.12 306.28 220.12 306.28 249.7 301.71 249.7 301.71 132.94 271.68 132.94 271.68 199.33 256.29 199.33 256.29 223.04 251.62 223.04 251.62 208.13 224.32 208.13 224.32 252.62 216.34 252.62 216.34 216.45 191.37 216.45 191.37 188.97 174.4 188.97 174.4 173.33 154.76 173.33 154.76 242.73 148.15 242.73 148.15 166.43 115.8 166.43 115.8 207.88 111.33 207.88 111.33 174.05 78.53 174.05 78.53 143.57 61.8 143.57" style="fill:#ebebeb"></polygon><rect x="367.07" y="209.95" width="4.6" height="6.31" transform="translate(738.74 426.2) rotate(180)" style="fill:#fff"></rect><rect x="359.1" y="209.95" width="4.6" height="6.31" transform="translate(722.81 426.2) rotate(180)" style="fill:#fff"></rect><rect x="351.14" y="209.95" width="4.6" height="6.31" transform="translate(706.87 426.2) rotate(180)" style="fill:#fff"></rect><rect x="367.07" y="219.44" width="4.6" height="6.31" transform="translate(738.74 445.19) rotate(180)" style="fill:#fff"></rect><rect x="359.1" y="219.44" width="4.6" height="6.31" transform="translate(722.81 445.19) rotate(180)" style="fill:#fff"></rect><rect x="351.14" y="219.44" width="4.6" height="6.31" transform="translate(706.87 445.19) rotate(180)" style="fill:#fff"></rect><rect x="367.07" y="228.93" width="4.6" height="6.31" transform="translate(738.74 464.17) rotate(180)" style="fill:#fff"></rect><rect x="359.1" y="228.93" width="4.6" height="6.31" transform="translate(722.81 464.17) rotate(180)" style="fill:#fff"></rect><rect x="351.14" y="228.93" width="4.6" height="6.31" transform="translate(706.87 464.17) rotate(180)" style="fill:#fff"></rect><rect x="367.07" y="238.42" width="4.6" height="6.31" transform="translate(738.74 483.16) rotate(180)" style="fill:#fff"></rect><rect x="359.1" y="238.42" width="4.6" height="6.31" transform="translate(722.81 483.16) rotate(180)" style="fill:#fff"></rect><rect x="351.14" y="238.42" width="4.6" height="6.31" transform="translate(706.87 483.16) rotate(180)" style="fill:#fff"></rect><rect x="207.91" y="220.96" width="4.6" height="5.26" transform="translate(420.41 447.18) rotate(180)" style="fill:#fff"></rect><rect x="199.94" y="220.96" width="4.6" height="5.26" transform="translate(404.48 447.18) rotate(180)" style="fill:#fff"></rect><rect x="191.97" y="220.96" width="4.6" height="5.26" transform="translate(388.54 447.18) rotate(180)" style="fill:#fff"></rect><rect x="207.91" y="228.88" width="4.6" height="5.26" transform="translate(420.41 463.02) rotate(180)" style="fill:#fff"></rect><rect x="199.94" y="228.88" width="4.6" height="5.26" transform="translate(404.48 463.02) rotate(180)" style="fill:#fff"></rect><rect x="191.97" y="228.88" width="4.6" height="5.26" transform="translate(388.54 463.02) rotate(180)" style="fill:#fff"></rect><rect x="207.91" y="236.8" width="4.6" height="5.26" transform="translate(420.41 478.86) rotate(180)" style="fill:#fff"></rect><rect x="199.94" y="236.8" width="4.6" height="5.26" transform="translate(404.48 478.86) rotate(180)" style="fill:#fff"></rect><rect x="191.97" y="236.8" width="4.6" height="5.26" transform="translate(388.54 478.86) rotate(180)" style="fill:#fff"></rect><rect x="207.91" y="244.72" width="4.6" height="5.26" transform="translate(420.41 494.69) rotate(180)" style="fill:#fff"></rect><rect x="199.94" y="244.72" width="4.6" height="5.26" transform="translate(404.48 494.69) rotate(180)" style="fill:#fff"></rect><rect x="191.97" y="244.72" width="4.6" height="5.26" transform="translate(388.54 494.69) rotate(180)" style="fill:#fff"></rect><rect x="207.91" y="252.83" width="4.6" height="5.26" transform="translate(420.41 510.92) rotate(180)" style="fill:#fff"></rect><rect x="199.94" y="252.83" width="4.6" height="5.26" transform="translate(404.48 510.92) rotate(180)" style="fill:#fff"></rect><rect x="191.97" y="252.83" width="4.6" height="5.26" transform="translate(388.54 510.92) rotate(180)" style="fill:#fff"></rect><rect x="207.91" y="260.95" width="4.6" height="5.26" transform="translate(420.41 527.16) rotate(180)" style="fill:#fff"></rect><rect x="199.94" y="260.95" width="4.6" height="5.26" transform="translate(404.48 527.16) rotate(180)" style="fill:#fff"></rect><rect x="191.97" y="260.95" width="4.6" height="5.26" transform="translate(388.54 527.16) rotate(180)" style="fill:#fff"></rect><rect x="207.91" y="269.06" width="4.6" height="5.26" transform="translate(420.41 543.39) rotate(180)" style="fill:#fff"></rect><rect x="199.94" y="269.06" width="4.6" height="5.26" transform="translate(404.48 543.39) rotate(180)" style="fill:#fff"></rect><rect x="191.97" y="269.06" width="4.6" height="5.26" transform="translate(388.54 543.39) rotate(180)" style="fill:#fff"></rect><rect x="207.91" y="277.18" width="4.6" height="5.26" transform="translate(420.41 559.62) rotate(180)" style="fill:#fff"></rect><rect x="199.94" y="277.18" width="4.6" height="5.26" transform="translate(404.48 559.62) rotate(180)" style="fill:#fff"></rect><rect x="191.97" y="277.18" width="4.6" height="5.26" transform="translate(388.54 559.62) rotate(180)" style="fill:#fff"></rect><rect x="310.45" y="224.16" width="26.47" height="3.95" transform="translate(647.36 452.27) rotate(180)" style="fill:#fff"></rect><rect x="310.45" y="231.82" width="26.47" height="3.95" transform="translate(647.36 467.58) rotate(180)" style="fill:#fff"></rect><rect x="310.45" y="239.47" width="26.47" height="3.95" transform="translate(647.36 482.89) rotate(180)" style="fill:#fff"></rect><rect x="310.45" y="247.13" width="26.47" height="3.95" transform="translate(647.36 498.2) rotate(180)" style="fill:#fff"></rect><rect x="310.45" y="254.78" width="26.47" height="3.95" transform="translate(647.36 513.51) rotate(180)" style="fill:#fff"></rect><rect x="310.45" y="262.44" width="26.47" height="3.95" transform="translate(647.36 528.82) rotate(180)" style="fill:#fff"></rect><rect x="310.45" y="270.09" width="26.47" height="3.95" transform="translate(647.36 544.14) rotate(180)" style="fill:#fff"></rect><rect x="310.45" y="277.75" width="26.47" height="3.95" transform="translate(647.36 559.45) rotate(180)" style="fill:#fff"></rect><rect x="119.91" y="170.11" width="24.33" height="3.95" transform="translate(264.15 344.16) rotate(180)" style="fill:#fff"></rect><rect x="119.91" y="177.77" width="24.33" height="3.95" transform="translate(264.15 359.48) rotate(180)" style="fill:#fff"></rect><rect x="119.91" y="185.42" width="24.33" height="3.95" transform="translate(264.15 374.79) rotate(180)" style="fill:#fff"></rect><rect x="119.91" y="193.08" width="24.33" height="3.95" transform="translate(264.15 390.1) rotate(180)" style="fill:#fff"></rect><rect x="119.91" y="200.73" width="24.33" height="3.95" style="fill:#fff"></rect><rect x="119.91" y="208.39" width="24.33" height="3.95" transform="translate(264.15 420.72) rotate(180)" style="fill:#fff"></rect><rect x="119.91" y="216.04" width="24.33" height="3.95" transform="translate(264.15 436.03) rotate(180)" style="fill:#fff"></rect><rect x="119.91" y="223.7" width="24.33" height="3.95" transform="translate(264.15 451.35) rotate(180)" style="fill:#fff"></rect><rect x="119.91" y="230.97" width="24.33" height="3.95" transform="translate(264.15 465.89) rotate(180)" style="fill:#fff"></rect><rect x="119.91" y="238.25" width="24.33" height="3.95" transform="translate(264.15 480.44) rotate(180)" style="fill:#fff"></rect><rect x="119.91" y="245.52" width="24.33" height="3.95" transform="translate(264.15 494.99) rotate(180)" style="fill:#fff"></rect><rect x="119.91" y="252.8" width="24.33" height="3.95" transform="translate(264.15 509.54) rotate(180)" style="fill:#fff"></rect><rect x="80.57" y="179.36" width="25.7" height="3.95" transform="translate(186.84 362.66) rotate(180)" style="fill:#fff"></rect><rect x="80.57" y="187.01" width="25.7" height="3.95" transform="translate(186.84 377.97) rotate(180)" style="fill:#fff"></rect><rect x="80.57" y="194.67" width="25.7" height="3.95" transform="translate(186.84 393.28) rotate(180)" style="fill:#fff"></rect><rect x="80.57" y="202.32" width="25.7" height="3.95" transform="translate(186.84 408.59) rotate(180)" style="fill:#fff"></rect><rect x="80.57" y="209.98" width="25.7" height="3.95" transform="translate(186.84 423.91) rotate(180)" style="fill:#fff"></rect><rect x="80.57" y="217.64" width="25.7" height="3.95" transform="translate(186.84 439.22) rotate(180)" style="fill:#fff"></rect><rect x="80.57" y="225.29" width="25.7" height="3.95" transform="translate(186.84 454.53) rotate(180)" style="fill:#fff"></rect><rect x="80.57" y="232.95" width="25.7" height="3.95" transform="translate(186.84 469.84) rotate(180)" style="fill:#fff"></rect><rect x="80.57" y="239.8" width="25.7" height="3.95" transform="translate(186.84 483.54) rotate(180)" style="fill:#fff"></rect><rect x="80.57" y="246.65" width="25.7" height="3.95" transform="translate(186.84 497.25) rotate(180)" style="fill:#fff"></rect><rect x="80.57" y="253.5" width="25.7" height="3.95" transform="translate(186.84 510.95) rotate(180)" style="fill:#fff"></rect><rect x="235.47" y="211.7" width="8.17" height="3.81" transform="translate(479.1 427.21) rotate(180)" style="fill:#fff"></rect><rect x="235.47" y="219.09" width="8.17" height="3.81" transform="translate(479.1 442) rotate(180)" style="fill:#fff"></rect><rect x="235.47" y="226.49" width="8.17" height="3.81" transform="translate(479.1 456.78) rotate(180)" style="fill:#fff"></rect><rect x="235.47" y="233.88" width="8.17" height="3.81" transform="translate(479.1 471.57) rotate(180)" style="fill:#fff"></rect><rect x="235.47" y="241.27" width="8.17" height="3.81" transform="translate(479.1 486.36) rotate(180)" style="fill:#fff"></rect><rect x="235.47" y="248.67" width="8.17" height="3.81" transform="translate(479.1 501.14) rotate(180)" style="fill:#fff"></rect><rect x="235.47" y="256.06" width="8.17" height="3.81" transform="translate(479.1 515.93) rotate(180)" style="fill:#fff"></rect><rect x="235.47" y="263.45" width="8.17" height="3.81" transform="translate(479.1 530.72) rotate(180)" style="fill:#fff"></rect><rect x="224.34" y="211.7" width="8.17" height="3.81" transform="translate(456.86 427.21) rotate(180)" style="fill:#fff"></rect><rect x="224.34" y="219.09" width="8.17" height="3.81" transform="translate(456.86 442) rotate(180)" style="fill:#fff"></rect><rect x="224.34" y="226.49" width="8.17" height="3.81" transform="translate(456.86 456.78) rotate(180)" style="fill:#fff"></rect><rect x="224.34" y="233.88" width="8.17" height="3.81" transform="translate(456.86 471.57) rotate(180)" style="fill:#fff"></rect><rect x="224.34" y="241.27" width="8.17" height="3.81" transform="translate(456.86 486.36) rotate(180)" style="fill:#fff"></rect><rect x="224.34" y="248.67" width="8.17" height="3.81" transform="translate(456.86 501.14) rotate(180)" style="fill:#fff"></rect><rect x="224.34" y="256.06" width="8.17" height="3.81" transform="translate(456.86 515.93) rotate(180)" style="fill:#fff"></rect><rect x="224.34" y="263.45" width="8.17" height="3.81" transform="translate(456.86 530.72) rotate(180)" style="fill:#fff"></rect><rect x="288.64" y="136.93" width="8.52" height="6.01" transform="translate(585.8 279.88) rotate(180)" style="fill:#fff"></rect><rect x="275.95" y="136.93" width="8.51" height="6.01" transform="translate(560.41 279.88) rotate(180)" style="fill:#fff"></rect><rect x="288.64" y="145.76" width="8.52" height="6.01" transform="translate(585.8 297.53) rotate(180)" style="fill:#fff"></rect><rect x="275.95" y="145.76" width="8.51" height="6.01" transform="translate(560.41 297.53) rotate(180)" style="fill:#fff"></rect><rect x="288.64" y="154.59" width="8.52" height="6.01" transform="translate(585.8 315.18) rotate(180)" style="fill:#fff"></rect><rect x="275.95" y="154.59" width="8.51" height="6.01" transform="translate(560.41 315.18) rotate(180)" style="fill:#fff"></rect><rect x="288.64" y="163.42" width="8.52" height="6.01" transform="translate(585.8 332.84) rotate(180)" style="fill:#fff"></rect><rect x="275.95" y="163.42" width="8.51" height="6.01" transform="translate(560.41 332.84) rotate(180)" style="fill:#fff"></rect><rect x="288.64" y="172.24" width="8.52" height="6.01" transform="translate(585.8 350.49) rotate(180)" style="fill:#fff"></rect><rect x="275.95" y="172.24" width="8.51" height="6.01" transform="translate(560.41 350.49) rotate(180)" style="fill:#fff"></rect><rect x="288.64" y="181.07" width="8.52" height="6.01" transform="translate(585.8 368.15) rotate(180)" style="fill:#fff"></rect><rect x="275.95" y="181.07" width="8.51" height="6.01" transform="translate(560.41 368.15) rotate(180)" style="fill:#fff"></rect><rect x="288.64" y="189.9" width="8.52" height="6.01" transform="translate(585.8 385.8) rotate(180)" style="fill:#fff"></rect><rect x="275.95" y="189.9" width="8.51" height="6.01" transform="translate(560.41 385.8) rotate(180)" style="fill:#fff"></rect><rect x="288.64" y="198.72" width="8.52" height="6.01" transform="translate(585.8 403.46) rotate(180)" style="fill:#fff"></rect><rect x="275.95" y="198.72" width="8.51" height="6.01" transform="translate(560.41 403.46) rotate(180)" style="fill:#fff"></rect><rect x="260.21" y="201.93" width="8.51" height="6.01" transform="translate(528.94 409.86) rotate(180)" style="fill:#fff"></rect><rect x="260.21" y="210.75" width="8.51" height="6.01" transform="translate(528.94 427.51) rotate(180)" style="fill:#fff"></rect><rect x="260.21" y="219.58" width="8.51" height="6.01" transform="translate(528.94 445.17) rotate(180)" style="fill:#fff"></rect><rect x="260.21" y="228.41" width="8.51" height="6.01" transform="translate(528.94 462.82) rotate(180)" style="fill:#fff"></rect><rect x="260.21" y="237.23" width="8.51" height="6.01" transform="translate(528.94 480.48) rotate(180)" style="fill:#fff"></rect><rect x="260.21" y="246.06" width="8.51" height="6.01" transform="translate(528.94 498.13) rotate(180)" style="fill:#fff"></rect><rect x="288.64" y="207.45" width="8.52" height="6.01" transform="translate(585.8 420.9) rotate(180)" style="fill:#fff"></rect><rect x="275.95" y="207.45" width="8.51" height="6.01" transform="translate(560.41 420.9) rotate(180)" style="fill:#fff"></rect><rect x="260.21" y="254.78" width="8.51" height="6.01" transform="translate(528.94 515.57) rotate(180)" style="fill:#fff"></rect><rect x="288.64" y="216.17" width="8.52" height="6.01" transform="translate(585.8 438.34) rotate(180)" style="fill:#fff"></rect><rect x="275.95" y="216.17" width="8.51" height="6.01" transform="translate(560.41 438.34) rotate(180)" style="fill:#fff"></rect><rect x="260.21" y="263.5" width="8.51" height="6.01" transform="translate(528.94 533.02) rotate(180)" style="fill:#fff"></rect><rect x="288.64" y="224.89" width="8.52" height="6.01" transform="translate(585.8 455.79) rotate(180)" style="fill:#fff"></rect><rect x="275.95" y="224.89" width="8.51" height="6.01" transform="translate(560.41 455.79) rotate(180)" style="fill:#fff"></rect><rect x="260.21" y="272.23" width="8.51" height="6.01" transform="translate(528.94 550.46) rotate(180)" style="fill:#fff"></rect><rect x="288.64" y="233.61" width="8.52" height="6.01" transform="translate(585.8 473.23) rotate(180)" style="fill:#fff"></rect><rect x="275.95" y="233.61" width="8.51" height="6.01" transform="translate(560.41 473.23) rotate(180)" style="fill:#fff"></rect><rect x="288.64" y="242.33" width="8.52" height="6.01" transform="translate(585.8 490.68) rotate(180)" style="fill:#fff"></rect><rect x="275.95" y="242.33" width="8.51" height="6.01" transform="translate(560.41 490.68) rotate(180)" style="fill:#fff"></rect><rect x="183.31" y="192.85" width="4.6" height="5.26" transform="translate(371.21 390.96) rotate(180)" style="fill:#fff"></rect><rect x="175.34" y="192.85" width="4.6" height="5.26" transform="translate(355.28 390.96) rotate(180)" style="fill:#fff"></rect><rect x="183.31" y="200.77" width="4.6" height="5.26" transform="translate(371.21 406.8) rotate(180)" style="fill:#fff"></rect><rect x="175.34" y="200.77" width="4.6" height="5.26" transform="translate(355.28 406.8) rotate(180)" style="fill:#fff"></rect><rect x="183.31" y="208.69" width="4.6" height="5.26" transform="translate(371.21 422.64) rotate(180)" style="fill:#fff"></rect><rect x="175.34" y="208.69" width="4.6" height="5.26" transform="translate(355.28 422.64) rotate(180)" style="fill:#fff"></rect><rect x="183.31" y="216.61" width="4.6" height="5.26" transform="translate(371.21 438.47) rotate(180)" style="fill:#fff"></rect><rect x="175.34" y="216.61" width="4.6" height="5.26" transform="translate(355.28 438.47) rotate(180)" style="fill:#fff"></rect><rect x="183.31" y="224.72" width="4.6" height="5.26" transform="translate(371.21 454.71) rotate(180)" style="fill:#fff"></rect><rect x="175.34" y="224.72" width="4.6" height="5.26" transform="translate(355.28 454.71) rotate(180)" style="fill:#fff"></rect><rect x="183.31" y="232.84" width="4.6" height="5.26" transform="translate(371.21 470.94) rotate(180)" style="fill:#fff"></rect><rect x="175.34" y="232.84" width="4.6" height="5.26" transform="translate(355.28 470.94) rotate(180)" style="fill:#fff"></rect><rect x="183.31" y="240.95" width="4.6" height="5.26" transform="translate(371.21 487.17) rotate(180)" style="fill:#fff"></rect><rect x="175.34" y="240.95" width="4.6" height="5.26" transform="translate(355.28 487.17) rotate(180)" style="fill:#fff"></rect><rect x="183.31" y="249.07" width="4.6" height="5.26" transform="translate(371.21 503.4) rotate(180)" style="fill:#fff"></rect><rect x="175.34" y="249.07" width="4.6" height="5.26" transform="translate(355.28 503.4) rotate(180)" style="fill:#fff"></rect><rect x="183.31" y="257.27" width="4.6" height="5.26" transform="translate(371.21 519.8) rotate(180)" style="fill:#fff"></rect><rect x="175.34" y="257.27" width="4.6" height="5.26" transform="translate(355.28 519.8) rotate(180)" style="fill:#fff"></rect><rect x="183.31" y="265.47" width="4.6" height="5.26" transform="translate(371.21 536.2) rotate(180)" style="fill:#fff"></rect><rect x="175.34" y="265.47" width="4.6" height="5.26" transform="translate(355.28 536.2) rotate(180)" style="fill:#fff"></rect><rect x="183.31" y="273.67" width="4.6" height="5.26" transform="translate(371.21 552.61) rotate(180)" style="fill:#fff"></rect><rect x="175.34" y="273.67" width="4.6" height="5.26" transform="translate(355.28 552.61) rotate(180)" style="fill:#fff"></rect><rect x="71.05" y="146.37" width="4.6" height="6.2" transform="translate(146.69 298.93) rotate(180)" style="fill:#fff"></rect><rect x="63.08" y="146.37" width="4.6" height="6.2" transform="translate(130.75 298.93) rotate(180)" style="fill:#fff"></rect><rect x="71.05" y="155.7" width="4.6" height="6.2" transform="translate(146.69 317.59) rotate(180)" style="fill:#fff"></rect><rect x="63.08" y="155.7" width="4.6" height="6.2" transform="translate(130.75 317.59) rotate(180)" style="fill:#fff"></rect><rect x="71.05" y="165.03" width="4.6" height="6.2" transform="translate(146.69 336.25) rotate(180)" style="fill:#fff"></rect><rect x="63.08" y="165.03" width="4.6" height="6.2" transform="translate(130.75 336.25) rotate(180)" style="fill:#fff"></rect><rect x="71.05" y="174.36" width="4.6" height="6.2" transform="translate(146.69 354.91) rotate(180)" style="fill:#fff"></rect><rect x="63.08" y="174.36" width="4.6" height="6.2" transform="translate(130.75 354.91) rotate(180)" style="fill:#fff"></rect><rect x="71.05" y="183.92" width="4.6" height="6.2" transform="translate(146.69 374.03) rotate(180)" style="fill:#fff"></rect><rect x="63.08" y="183.92" width="4.6" height="6.2" transform="translate(130.75 374.03) rotate(180)" style="fill:#fff"></rect><rect x="71.05" y="193.48" width="4.6" height="6.2" transform="translate(146.69 393.16) rotate(180)" style="fill:#fff"></rect><rect x="63.08" y="193.48" width="4.6" height="6.2" transform="translate(130.75 393.16) rotate(180)" style="fill:#fff"></rect><rect x="71.05" y="203.04" width="4.6" height="6.2" transform="translate(146.69 412.28) rotate(180)" style="fill:#fff"></rect><rect x="63.08" y="203.04" width="4.6" height="6.2" transform="translate(130.75 412.28) rotate(180)" style="fill:#fff"></rect><rect x="71.05" y="212.6" width="4.6" height="6.2" transform="translate(146.69 431.4) rotate(180)" style="fill:#fff"></rect><rect x="63.08" y="212.6" width="4.6" height="6.2" transform="translate(130.75 431.4) rotate(180)" style="fill:#fff"></rect><rect x="71.05" y="222.26" width="4.6" height="6.2" transform="translate(146.69 450.72) rotate(180)" style="fill:#fff"></rect><rect x="63.08" y="222.26" width="4.6" height="6.2" transform="translate(130.75 450.72) rotate(180)" style="fill:#fff"></rect><rect x="71.05" y="231.92" width="4.6" height="6.2" transform="translate(146.69 470.05) rotate(180)" style="fill:#fff"></rect><rect x="63.08" y="231.92" width="4.6" height="6.2" transform="translate(130.75 470.05) rotate(180)" style="fill:#fff"></rect><rect x="71.05" y="241.59" width="4.6" height="6.2" transform="translate(146.69 489.37) rotate(180)" style="fill:#fff"></rect><rect x="63.08" y="241.59" width="4.6" height="6.2" transform="translate(130.75 489.37) rotate(180)" style="fill:#fff"></rect><rect x="71.05" y="251.25" width="4.6" height="6.2" transform="translate(146.69 508.7) rotate(180)" style="fill:#fff"></rect><rect x="63.08" y="251.25" width="4.6" height="6.2" transform="translate(130.75 508.7) rotate(180)" style="fill:#fff"></rect><rect x="166.27" y="192.85" width="4.6" height="5.26" transform="translate(337.13 390.96) rotate(180)" style="fill:#fff"></rect><rect x="158.3" y="192.85" width="4.6" height="5.26" transform="translate(321.2 390.96) rotate(180)" style="fill:#fff"></rect><rect x="166.27" y="184.73" width="4.6" height="5.26" transform="translate(337.13 374.72) rotate(180)" style="fill:#fff"></rect><rect x="158.3" y="184.73" width="4.6" height="5.26" transform="translate(321.2 374.72) rotate(180)" style="fill:#fff"></rect><rect x="166.27" y="176.61" width="4.6" height="5.26" transform="translate(337.13 358.48) rotate(180)" style="fill:#fff"></rect><rect x="158.3" y="176.61" width="4.6" height="5.26" transform="translate(321.2 358.48) rotate(180)" style="fill:#fff"></rect><rect x="166.27" y="200.77" width="4.6" height="5.26" transform="translate(337.13 406.8) rotate(180)" style="fill:#fff"></rect><rect x="158.3" y="200.77" width="4.6" height="5.26" transform="translate(321.2 406.8) rotate(180)" style="fill:#fff"></rect><rect x="166.27" y="208.69" width="4.6" height="5.26" transform="translate(337.13 422.64) rotate(180)" style="fill:#fff"></rect><rect x="158.3" y="208.69" width="4.6" height="5.26" transform="translate(321.2 422.64) rotate(180)" style="fill:#fff"></rect><rect x="166.27" y="216.61" width="4.6" height="5.26" transform="translate(337.13 438.47) rotate(180)" style="fill:#fff"></rect><rect x="158.3" y="216.61" width="4.6" height="5.26" transform="translate(321.2 438.47) rotate(180)" style="fill:#fff"></rect><rect x="166.27" y="224.72" width="4.6" height="5.26" transform="translate(337.13 454.71) rotate(180)" style="fill:#fff"></rect><rect x="158.3" y="224.72" width="4.6" height="5.26" transform="translate(321.2 454.71) rotate(180)" style="fill:#fff"></rect><rect x="166.27" y="232.84" width="4.6" height="5.26" transform="translate(337.13 470.94) rotate(180)" style="fill:#fff"></rect><rect x="158.3" y="232.84" width="4.6" height="5.26" transform="translate(321.2 470.94) rotate(180)" style="fill:#fff"></rect><rect x="166.27" y="240.95" width="4.6" height="5.26" transform="translate(337.13 487.17) rotate(180)" style="fill:#fff"></rect><rect x="158.3" y="240.95" width="4.6" height="5.26" transform="translate(321.2 487.17) rotate(180)" style="fill:#fff"></rect><rect x="166.27" y="249.07" width="4.6" height="5.26" transform="translate(337.13 503.4) rotate(180)" style="fill:#fff"></rect><rect x="158.3" y="249.07" width="4.6" height="5.26" transform="translate(321.2 503.4) rotate(180)" style="fill:#fff"></rect><rect x="166.27" y="257.27" width="4.6" height="5.26" transform="translate(337.13 519.8) rotate(180)" style="fill:#fff"></rect><rect x="158.3" y="257.27" width="4.6" height="5.26" transform="translate(321.2 519.8) rotate(180)" style="fill:#fff"></rect><rect x="166.27" y="265.47" width="4.6" height="5.26" transform="translate(337.13 536.2) rotate(180)" style="fill:#fff"></rect><rect x="158.3" y="265.47" width="4.6" height="5.26" transform="translate(321.2 536.2) rotate(180)" style="fill:#fff"></rect><rect x="166.27" y="273.67" width="4.6" height="5.26" transform="translate(337.13 552.61) rotate(180)" style="fill:#fff"></rect><rect x="158.3" y="273.67" width="4.6" height="5.26" transform="translate(321.2 552.61) rotate(180)" style="fill:#fff"></rect><path d="M58.31,312.7c202.89-.61,430.49-.61,633.38,0-202.89.62-430.49.62-633.38,0Z" style="fill:#a6a6a6"></path></g><g id="freepik--Shadow--inject-65"><ellipse cx="375" cy="429.15" rx="303.49" ry="7.89" style="fill:#ebebeb"></ellipse></g><g id="freepik--Car--inject-65"><path d="M520.78,276.06l-.71-2.42s9-9.61,11.53-10.79,14.19,1.78,15,3.17.3,8.53.09,9.6-9.89,5.39-12.24,5.49S520.78,276.06,520.78,276.06Z" style="fill:#D7D9DB"></path><path d="M520.07,273.64l.71,2.42s-6,4.5-6.19,4.76.15,1.55.15,1.55h-6.05v-8.73a14.32,14.32,0,0,0,2.82,1.21C512.38,275,520.07,273.64,520.07,273.64Z" style="fill:#D7D9DB"></path><path d="M288.64,408.52l22.59-5.32,45.23-102.36s-42.43-22.2-60.39,13.65S288.64,408.52,288.64,408.52Z" style="fill:#263238"></path><path d="M60.84,377.51l22.59-5.33L134,290.62s-42.43-22.2-60.4,13.65S60.84,377.51,60.84,377.51Z" style="fill:#263238"></path><path d="M622.69,384.53s11.31,3.1,17.4,11.76c3.58,5.1,4.2,7.68,4.2,7.68h3.31L644,374.86Z" style="fill:#D7D9DB"></path><g style="opacity:0.2"><path d="M622.69,384.53s11.31,3.1,17.4,11.76c3.58,5.1,4.2,7.68,4.2,7.68h3.31L644,374.86Z"></path></g><path d="M583.09,409.82l64.51-12s-12.89-14.24-32.26-14.13S583.09,409.82,583.09,409.82Z" style="fill:#263238"></path><polygon points="647.6 397.86 583.09 409.82 583.09 411.88 647.4 399.89 647.6 397.86" style="fill:#37474f"></polygon><path d="M396,374.81c-.69,25.32-10.76,56.38-33.18,56.38-2.2,0-32.23.58-34.2-.07-18.07-6-28.78-39-26.75-68,1.58-22.64,8.77-48,27.68-51,1.26-.2,32.85,0,34.22,0C386.39,312.06,396.74,347.57,396,374.81Z" style="fill:#263238"></path><path d="M360,374.81c-.7,25.32-10.76,56.38-33.19,56.38s-32.68-35.89-30.43-68.1c1.69-24.15,9.48-51,31.38-51C350.39,312.06,360.74,347.57,360,374.81Z" style="fill:#37474f"></path><path d="M350.65,374.08c-.57,19.5-8.07,43.41-24.65,43.41s-24.08-27.63-22.35-52.44c1.3-18.59,7.12-39.29,23.31-39.29C343.69,325.76,351.26,353.1,350.65,374.08Z" style="fill:#c7c7c7"></path><path d="M321.66,330c.34,7.93,1.53,33.17,3.25,33.17,1.45,0,5.7-23.83,7.2-32.45a12.67,12.67,0,0,0-5.86-1.44A14.43,14.43,0,0,0,321.66,330Z" style="fill:#263238"></path><path d="M328,364.64c.91.69,9-10.7,14.93-19.23a35.87,35.87,0,0,0-5.32-9.94C333.81,345.24,326.78,363.72,328,364.64Z" style="fill:#263238"></path><path d="M329.55,367.58c.42,1,9.15-3,17-6.8a76.23,76.23,0,0,0-1.78-9.43C337.58,358,329.05,366.3,329.55,367.58Z" style="fill:#263238"></path><path d="M330.37,371.14c-.08,1.19,8.75,2.87,16.78,4.14,0-.47,0-.92.05-1.39.08-2.54,0-5.17-.14-7.84C339,367.71,330.47,369.8,330.37,371.14Z" style="fill:#263238"></path><path d="M344.65,391.81a79.28,79.28,0,0,0,2-10.79c-7.69-3.57-16.67-7.42-17.34-6.18S337.93,385.32,344.65,391.81Z" style="fill:#263238"></path><path d="M335.11,410a30.07,30.07,0,0,0,7.1-10.88c-4.94-8.43-13.4-22.42-14.71-21.53S333,402.53,335.11,410Z" style="fill:#263238"></path><path d="M317.81,411.54a12.24,12.24,0,0,0,7.37,2.47,13.18,13.18,0,0,0,3-.34c-.27-6.62-1.48-34.09-3.29-34.09C323.51,379.58,319.37,402.55,317.81,411.54Z" style="fill:#263238"></path><path d="M308.25,395.5a41.58,41.58,0,0,0,4.5,10.42c3.83-9.83,10-26.2,8.83-27.08C320.73,378.2,313.87,387.55,308.25,395.5Z" style="fill:#263238"></path><path d="M305.6,381a78.46,78.46,0,0,0,1.23,8.64c6.29-5.94,12.75-12.42,12.29-13.57C318.77,375.19,312.28,377.92,305.6,381Z" style="fill:#263238"></path><path d="M305.29,368.24c-.12,2.67-.12,5.36,0,8,6.66-1.41,12.86-3,12.94-4.18S312,369.55,305.29,368.24Z" style="fill:#263238"></path><path d="M305.63,363.15c6.45,3.07,12.91,5.8,13.48,4.73s-6.14-8.45-12.06-14.65A91.1,91.1,0,0,0,305.63,363.15Z" style="fill:#263238"></path><path d="M308.91,346.05s0,0,0,0c4.77,8.25,11.47,19.34,12.65,18.54s-4.1-21.54-6.42-30.22A32,32,0,0,0,308.91,346.05Z" style="fill:#263238"></path><path d="M165,364.88c-.69,25.32-10.76,56.38-33.18,56.38-2.2,0-32.23.59-34.2-.07-18.07-6-28.78-39-26.75-68,1.58-22.64,8.77-48,27.68-51,1.26-.2,32.85,0,34.22,0C155.37,302.13,165.72,337.64,165,364.88Z" style="fill:#263238"></path><path d="M129,364.88c-.7,25.32-10.76,56.38-33.19,56.38s-32.68-35.88-30.43-68.1c1.69-24.14,9.48-51,31.38-51C119.37,302.13,129.72,337.64,129,364.88Z" style="fill:#37474f"></path><path d="M119.63,364.15c-.57,19.5-8.07,43.41-24.65,43.41S70.9,379.93,72.63,355.12c1.3-18.59,7.12-39.29,23.31-39.29C112.67,315.83,120.24,343.17,119.63,364.15Z" style="fill:#c7c7c7"></path><path d="M90.64,320.05c.34,7.92,1.53,33.16,3.25,33.16,1.45,0,5.7-23.82,7.2-32.44a12.55,12.55,0,0,0-5.86-1.45A14.43,14.43,0,0,0,90.64,320.05Z" style="fill:#263238"></path><path d="M97,354.72c.91.68,9-10.7,14.93-19.24a36,36,0,0,0-5.32-9.94C102.79,335.31,95.76,353.79,97,354.72Z" style="fill:#263238"></path><path d="M98.53,357.65c.42,1,9.15-3,17-6.79a76,76,0,0,0-1.78-9.44C106.56,348.09,98,356.38,98.53,357.65Z" style="fill:#263238"></path><path d="M99.35,361.21c-.08,1.19,8.75,2.87,16.78,4.15,0-.47,0-.93.05-1.4.08-2.53,0-5.17-.14-7.84C108,357.78,99.45,359.87,99.35,361.21Z" style="fill:#263238"></path><path d="M113.63,381.89a79.71,79.71,0,0,0,2-10.8c-7.69-3.57-16.67-7.42-17.34-6.18S106.91,375.4,113.63,381.89Z" style="fill:#263238"></path><path d="M104.09,400a30.24,30.24,0,0,0,7.1-10.88c-4.94-8.44-13.4-22.42-14.71-21.53S101.94,392.6,104.09,400Z" style="fill:#263238"></path><path d="M86.79,401.62a12.3,12.3,0,0,0,7.37,2.46,13.18,13.18,0,0,0,3-.34c-.27-6.62-1.48-34.09-3.29-34.09C92.49,369.65,88.35,392.62,86.79,401.62Z" style="fill:#263238"></path><path d="M77.23,385.58A41.66,41.66,0,0,0,81.73,396c3.83-9.82,10-26.2,8.83-27.07C89.71,368.28,82.85,377.62,77.23,385.58Z" style="fill:#263238"></path><path d="M74.58,371.09a78.64,78.64,0,0,0,1.23,8.65c6.29-5.94,12.75-12.42,12.29-13.58C87.75,365.26,81.26,368,74.58,371.09Z" style="fill:#263238"></path><path d="M74.27,358.31c-.12,2.67-.12,5.36,0,8,6.66-1.4,12.86-3,12.94-4.18S81,359.62,74.27,358.31Z" style="fill:#263238"></path><path d="M74.61,353.23c6.45,3.06,12.91,5.79,13.48,4.72S82,349.5,76,343.31A90.76,90.76,0,0,0,74.61,353.23Z" style="fill:#263238"></path><path d="M77.89,336.12s0,0,0,0c4.77,8.25,11.47,19.34,12.65,18.54s-4.1-21.53-6.42-30.21A32,32,0,0,0,77.89,336.12Z" style="fill:#263238"></path><path d="M650.94,364.88c-.7,25.32-10.76,56.38-33.18,56.38-2.2,0-32.24.59-34.2-.07-18.07-6-28.78-39-26.75-68,1.58-22.64,8.77-48,27.68-51,1.26-.2,32.84,0,34.21,0C641.34,302.13,651.69,337.64,650.94,364.88Z" style="fill:#263238"></path><path d="M614.94,364.88c-.7,25.32-10.76,56.38-33.18,56.38s-32.69-35.88-30.43-68.1c1.69-24.14,9.48-51,31.37-51C605.34,302.13,615.69,337.64,614.94,364.88Z" style="fill:#37474f"></path><path d="M605.61,364.15c-.57,19.5-8.08,43.41-24.65,43.41s-24.08-27.63-22.35-52.44c1.3-18.59,7.12-39.29,23.3-39.29C598.65,315.83,606.22,343.17,605.61,364.15Z" style="fill:#c7c7c7"></path><path d="M576.61,320.05c.34,7.92,1.54,33.16,3.26,33.16,1.45,0,5.7-23.82,7.2-32.44a12.58,12.58,0,0,0-5.86-1.45A14.54,14.54,0,0,0,576.61,320.05Z" style="fill:#263238"></path><path d="M583,354.72c.92.68,9-10.7,14.94-19.24a36.28,36.28,0,0,0-5.32-9.94C588.76,335.31,581.73,353.79,583,354.72Z" style="fill:#263238"></path><path d="M584.51,357.65c.41,1,9.14-3,17-6.79a77.93,77.93,0,0,0-1.78-9.44C592.54,348.09,584,356.38,584.51,357.65Z" style="fill:#263238"></path><path d="M585.33,361.21c-.08,1.19,8.75,2.87,16.77,4.15,0-.47,0-.93.06-1.4.08-2.53,0-5.17-.14-7.84C594,357.78,585.42,359.87,585.33,361.21Z" style="fill:#263238"></path><path d="M599.6,381.89a78.2,78.2,0,0,0,2-10.8c-7.69-3.57-16.67-7.42-17.34-6.18S592.89,375.4,599.6,381.89Z" style="fill:#263238"></path><path d="M590.07,400a30.38,30.38,0,0,0,7.1-10.88c-4.95-8.44-13.4-22.42-14.71-21.53S587.92,392.6,590.07,400Z" style="fill:#263238"></path><path d="M572.77,401.62a12.29,12.29,0,0,0,7.36,2.46,13.18,13.18,0,0,0,3-.34c-.26-6.62-1.48-34.09-3.29-34.09C578.46,369.65,574.33,392.62,572.77,401.62Z" style="fill:#263238"></path><path d="M563.21,385.58A41.66,41.66,0,0,0,567.7,396c3.84-9.82,10-26.2,8.84-27.07C575.69,368.28,568.83,377.62,563.21,385.58Z" style="fill:#263238"></path><path d="M560.55,371.09a81.1,81.1,0,0,0,1.24,8.65c6.29-5.94,12.74-12.42,12.29-13.58C573.72,365.26,567.24,368,560.55,371.09Z" style="fill:#263238"></path><path d="M560.25,358.31c-.12,2.67-.12,5.36,0,8,6.67-1.4,12.87-3,12.95-4.18S566.93,359.62,560.25,358.31Z" style="fill:#263238"></path><path d="M560.59,353.23C567,356.29,573.5,359,574.07,358s-6.14-8.45-12.06-14.64A88.39,88.39,0,0,0,560.59,353.23Z" style="fill:#263238"></path><path d="M563.86,336.12s0,0,0,0c4.78,8.25,11.48,19.34,12.66,18.54s-4.1-21.53-6.42-30.21A32,32,0,0,0,563.86,336.12Z" style="fill:#263238"></path><path d="M688,379.55c-.08,7.88-.21,13.87-.41,14.4s-40,11.26-40.37,9.86c-1.21-4.69-4.66-24.59-4.66-24.59l-32.36,8.67s-18.68,22.72-22.9,26c-7.5,5.77-107.44,10.38-109,10.09-3-.6-99.51-6.38-101.88-8S378,304.21,327.05,304.21c-36.91,0-41.37,74.56-38.41,104.31l-143.79-12.3S131,380.33,130.24,376.77s2.81-77.85-34.21-77.85c-39.55,0-34.71,79-34.71,79l-4-6.05-.89-10.51L59,355.13s.1-43.64,2.32-49.72c.69-1.89,7.74-10.18,14.38-17.52.65-.73-3.67-4-3-4.74,4.88-5.32,9.12-9.77,9.91-10,1.8-.54,9.42,0,11.14-.22,27.87-4.08,81.08,0,82.29-1.1,1.48-1.33,57.7-41.29,84.58-48.13,62.49-15.92,173.06-9.68,193-1.31,6.9,2.89,72.25,61.35,72.25,61.35s48.36-4.23,62.67-.1c41.54,12,91.52,54.71,91.52,54.71s3.56,8.14,3.71,10.07c.08,1.16-1.12,10.46-1.25,26.14C682.49,376.27,688,378,688,379.55Z" style="fill:#D7D9DB"></path><path d="M670,398.91c-10.8,2.83-22.62,5.66-22.81,4.9-1.22-4.68-4.67-24.59-4.67-24.59l-32.36,8.67c2.65-2.45,32.58-11.12,34.24-11.53S649,402,649,402Z" style="fill:#fff;opacity:0.5"></path><path d="M474.26,322l47.49,26.48s12.13.36,20,1.91,54.2,29,54.2,29S580.77,397.44,567.79,400s-51.13,6.71-66.48,7.53S400.09,414,400.09,414s75.14,4.67,93.24,5.29,79.95-6.81,84.64-7.43,21.46-11.21,21.46-11.21l10.73-12.77s2.14-1.28,9-3.64C619.2,384.25,546.81,336.41,474.26,322Z" style="opacity:0.1"></path><path d="M579.25,318.89s20.87,1.6,44.45,23.41c2.26,2.08,17.16,25.22,17.16,25.22S599.67,326.67,579.25,318.89Z" style="opacity:0.1"></path><path d="M225.05,281.12s-36.55-3.05-41.11-4.7a28.11,28.11,0,0,1-7.94-4.61c1.07-1,30.93-22.24,57.51-36.47h0s-20.87,23.12-19.63,31.38S225.05,281.12,225.05,281.12Z" style="opacity:0.1"></path><path d="M288.64,408.52l-143.79-12.3S131,380.33,130.24,376.77c-.29-1.32,0-12.43-1.38-25.86,5,5.19,17.76,18,27.17,22.37,11.36,5.34,121.5,21.84,131.92,23.4C288.06,401.1,288.31,405.11,288.64,408.52Z" style="fill:#fff;opacity:0.2"></path><path d="M405.6,286.09l95.5-1.94s100.15,36.55,141.42,95.07C642.52,379.22,566.06,317.21,405.6,286.09Z" style="fill:#fff;opacity:0.2"></path><path d="M480.25,372.84,372.14,362.67l.67,3.38,88.36,9.23L371.67,369l-1.17-6.51s-8-56.83-40.47-58.32c-16.34-.75-22.4,5.93-34,21.56A177,177,0,0,1,280.15,344l2.91-9.65-90.05-5c1.82,7.72,5.62,18,13.45,23.67,13.62,9.9,73,21.42,73,21.42v3.63s-91.95-14.3-105.67-31.57a83.42,83.42,0,0,1-12.92-21.94l-4.46-2.85L131,310.66l-15.3-1.74c-4.76-6.09-11.12-10-19.62-10a25,25,0,0,0-11.71,2.76c-.61.32-1.19.66-1.77,1a25.78,25.78,0,0,0-2.88,2.13h0l-16.74-1.9c2.58-3.47,7.79-9.52,12.78-15,.65-.73-3.67-4-3-4.74,1.27-1.37,2.49-2.71,3.62-3.91,90.2,7.61,214.41,27.32,214.41,27.32l1.73-3.81L198,289.61l96,9.74,2.63-5.79s16.89-6,29-5.89C369,288,485.22,355.4,485.22,355.4Z" style="opacity:0.1"></path><path d="M410,281.54l-.51-1.75s6.47-6.93,8.32-7.78,13.23,1.28,13.85,2.28.37,5.38.22,6.15-10.28,2.5-12,2.58S410,281.54,410,281.54Z" style="fill:#D7D9DB"></path><path d="M409.44,279.79l.51,1.75s-4.3,3.24-4.46,3.43.11,1.12.11,1.12h-4.37v-6.3a10.14,10.14,0,0,0,2,.87C403.9,280.77,409.44,279.79,409.44,279.79Z" style="fill:#D7D9DB"></path><g style="opacity:0.1"><path d="M410,281.54l-.51-1.75s6.47-6.93,8.32-7.78,13.23,1.28,13.85,2.28.37,5.38.22,6.15-10.28,2.5-12,2.58S410,281.54,410,281.54Z"></path><path d="M409.44,279.79l.51,1.75s-4.3,3.24-4.46,3.43.11,1.12.11,1.12h-4.37v-6.3a10.14,10.14,0,0,0,2,.87C403.9,280.77,409.44,279.79,409.44,279.79Z"></path></g><path d="M264.46,229.25a13.78,13.78,0,0,0-6.3,1.62c-.78.38-22.38,23.27-22.22,32.41s15.4,15.33,15.4,15.33l7,.88Z" style="fill:#fff;opacity:0.5"></path><path d="M321.13,284.15c-2,2-60.16-4.2-61.94-4.4s-19.31-9-19.93-15.75c-.85-9.38,18.9-31.51,22.75-33.86,6.09-3.73,45.25-1.89,51.47.63C318.34,232.73,323.4,281.83,321.13,284.15Z" style="fill:#263238"></path><path d="M316.06,282c-1.81,1.84-52.42-4.47-54.05-4.65s-18.61-6.71-19.57-14.7c-.85-7.17,18.77-29,22.56-30.6s38.39-1.37,44.07.93C313.51,234.79,318.13,279.89,316.06,282Z" style="fill:#37474f"></path><g style="opacity:0.5"><path d="M299.31,231.58,255.89,275c-4.4-2.1-9.92-5.41-12.31-9.28l34.67-34.67C285,231,293,231.13,299.31,231.58Z" style="fill:#455a64"></path><path d="M310.66,235.35l-42.73,42.72-2.39-.28,44.21-44.19A8.67,8.67,0,0,1,310.66,235.35Z" style="fill:#455a64"></path><path d="M316.49,274.14l-8,8L306,282l10.4-10.39C316.41,272.5,316.45,273.34,316.49,274.14Z" style="fill:#455a64"></path></g><path d="M296.62,231.15c-1.57.24-17.13,40.71-20.39,47.91-.41.9-3.6.15-3.26-.08s20-45.67,19.4-47.59C292.07,230.37,296.62,231.15,296.62,231.15Z" style="fill:#263238"></path><path d="M525.85,283.72c-1.46,0-135.41,2.37-139,2.37S336,285,335.41,284.55,328.68,235,330.14,231c.4-1.08,57-7.25,129.65-4.34C463.39,226.83,528.27,283.68,525.85,283.72Z" style="fill:#263238"></path><path d="M522.9,280.32c-1.43.07-129.88,1.31-133.37,1.31s-49.9-.95-50.49-1.34-6.6-43.17-5.17-46.6c.39-.94,58.71-6.76,130-4.45C466.52,229.32,523.94,280.27,522.9,280.32Z" style="fill:#37474f"></path><path d="M522.91,280.32l-3.55.05h0l-21.81.23-9.94.11h-2.68l-57,.56-10.51.1-13.57.13-2.69,0-11.6.1c-1.91,0-16.75-.29-29.85-.61l-2.6-.06c-4.62-.12-8.88-.25-12.1-.35-3.53-.13-5.81-.24-5.94-.32s-1.14-5.82-2.15-13.17c-1-6.94-2-15.37-2.66-22.05a93,93,0,0,1-.58-9.82,5.47,5.47,0,0,1,.22-1.56,5.31,5.31,0,0,1,1.74-.4c2.12-.34,6.12-.79,11.7-1.29,6.72-.6,15.74-1.26,26.53-1.84,6.84-.35,14.39-.68,22.52-.93q6.18-.19,12.76-.32l2.71,0c13-.23,27.1-.24,41.88.09.85,0,1.72,0,2.59.06,2.51.07,5,.13,7.57.22a14.27,14.27,0,0,1,3.4,2.26c1.52,1.18,3.49,2.76,5.76,4.64,8.09,6.7,20.08,17.14,30.28,26.19l1.42,1.25,5.19,4.64c5,4.5,9.09,8.22,11.27,10.31C522.4,279.67,523,280.31,522.91,280.32Z" style="fill:#37474f"></path><path d="M423.61,228.73q-27.83,27-58.7,52.42l-5.23-.13-2.6-.06c-4.62-.12-8.88-.25-12.1-.35-2.2-.08-3.9-.16-4.92-.21q31.65-24.72,60.28-51.28c2.86-.09,5.79-.15,8.78-.21l2.71,0Q417.59,228.77,423.61,228.73Zm59.44,15.89q-17.31,18.54-35.92,36.47l11.26-.11q15.71-15.44,30.47-31.34ZM359.6,231q-12.11,10.29-24.72,20.28c.33,2.93.7,6,1.09,8.94q18.63-14.67,36.17-30C367.62,230.51,363.42,230.77,359.6,231Zm76.94-2.31q-27.24,27.17-57.47,52.72l3,.06q30.07-25.56,57.19-52.77Zm84.65,49.8c-.31-.3-.66-.64-1.05-1-.86,1-1.72,1.91-2.59,2.86l1.8,0h.91c.45-.48.89-1,1.32-1.46ZM474,237q-21.3,22.64-44.57,44.3l3,0q22.48-21,43.11-43Z" style="fill:#455a64;opacity:0.5"></path><path d="M317.28,276.06l.71-2.42s-9-9.61-11.53-10.79-14.19,1.78-15,3.17-.3,8.53-.09,9.6,9.89,5.39,12.24,5.49S317.28,276.06,317.28,276.06Z" style="fill:#D7D9DB"></path><path d="M318,273.64l-.71,2.42s6,4.5,6.19,4.76-.15,1.55-.15,1.55h6.05v-8.73a14.32,14.32,0,0,1-2.82,1.21C325.68,275,318,273.64,318,273.64Z" style="fill:#D7D9DB"></path><path d="M292.43,266.51s7.59-3.53,12.8-3v1.86S296.59,264.83,292.43,266.51Z" style="fill:#fff;opacity:0.5"></path><path d="M421.41,317S497.09,353,499,353.9s9.22,1.5,9.22,1.5l13.51-2.15v-2.78l-66-37.1h-30Z" style="fill:#37474f"></path><polygon points="434.2 323.11 458.55 322 488.14 336.31 465.32 337.9 434.2 323.11" style="fill:#263238"></polygon><polygon points="475.84 342.91 493.77 341.3 510.82 350.47 494.43 351.73 475.84 342.91" style="fill:#263238"></polygon><path d="M676.21,335.15l-11.72,1.7s-6.55-.61-7.9-1.43-52.62-35-52.62-35l6.15-3.46h9.73C644.66,310.3,667.42,328,676.21,335.15Z" style="fill:#37474f"></path><polygon points="612.64 306.21 631.71 305.84 651.62 319.42 633.73 320.25 612.64 306.21" style="fill:#263238"></polygon><polygon points="640.86 325 656.78 323.47 667.73 332.17 653.47 333.37 640.86 325" style="fill:#263238"></polygon><polygon points="648.94 373.52 652.86 396.29 667.11 395.05 677.02 386.38 678.67 365.73 648.94 373.52" style="fill:#D7D9DB"></polygon><polygon points="648.94 373.52 652.86 396.29 667.11 395.05 677.02 386.38 678.67 365.73 648.94 373.52" style="opacity:0.2"></polygon><polygon points="648.94 373.52 652.17 392.37 664.14 390.93 670.78 384.53 671.86 367.52 648.94 373.52" style="fill:#263238"></polygon><polygon points="532.21 386.46 601 378.82 588.91 401.15 573.87 409.82 507.34 414.76 532.21 386.46" style="fill:#D7D9DB"></polygon><polygon points="532.21 386.46 601 378.82 588.91 401.15 573.87 409.82 507.34 414.76 532.21 386.46" style="opacity:0.2"></polygon><polygon points="507.34 414.76 515.48 395.38 532.21 386.46 590.34 379.95 576.95 402.32 563.15 410.62 507.34 414.76" style="fill:#263238"></polygon><path d="M226.33,368.68s-38-8.21-50.5-18.06c-11.25-8.87-28.17-49.93-26.14-65.37.76-5.73,12.39-6.4,25.72-6.24,14.11.16,19.32,1.11,19.32,1.11l-22.15,12.1-1.35,35.68L187.64,353C198.79,360.22,226.33,368.68,226.33,368.68Z" style="fill:#D7D9DB"></path><path d="M226.33,368.68s-38-8.21-50.5-18.06c-11.25-8.87-28.17-49.93-26.14-65.37.76-5.73,12.39-6.4,25.72-6.24,14.11.16,19.32,1.11,19.32,1.11l-22.15,12.1-1.35,35.68L187.64,353C198.79,360.22,226.33,368.68,226.33,368.68Z" style="fill:#fff;opacity:0.5"></path><path d="M172.58,292.22l18.82-10.28s-31.47-1.19-35.91,1-3.84,8.7,1.14,25.72c5,17.17,16.8,35.47,18.21,36.82,3.21,3.09,7.5,5.32,12.8,7.59,0,0-7.16-11.59-9.45-18.91C174.86,323.48,172.58,292.22,172.58,292.22Z" style="fill:#D7D9DB"></path><path d="M172.58,292.22l18.82-10.28s-31.47-1.19-35.91,1-3.84,8.7,1.14,25.72c5,17.17,16.8,35.47,18.21,36.82,3.21,3.09,7.5,5.32,12.8,7.59,0,0-7.16-11.59-9.45-18.91C174.86,323.48,172.58,292.22,172.58,292.22Z" style="opacity:0.2"></path><path d="M183.94,284.54s-30.23,0-31.28,4.16,5.84,29.87,14.57,44.7c1.62,2.76,5.46,9,5.46,9s-3-48.79-2.92-50.17S183.94,284.54,183.94,284.54Z" style="fill:#263238"></path><g style="opacity:0.5"><path d="M335.41,284.55s31.07,9.16,80.13,33.7c28.13,14.07,57.81,27.47,81.25,37.73,2.33,1,11.69,14.69,11.69,14.69s-8.15-14.32-9.44-15.06c-26.1-14.75-76.18-38-80-39.87-53.46-25.65-72-30.56-72-30.56Z" style="fill:#fff"></path><path d="M390,286.09l6-.13L458.77,308s76.89,17,150.6,70.08c0,0-64.29-40.38-151.52-67Z" style="fill:#fff"></path><path d="M527,291.52s36.8,2.94,47.61,7.22,54.28,43.56,54.28,43.56S586.43,309.63,570.59,304,527,291.52,527,291.52Z" style="fill:#fff"></path><path d="M84.32,301.68c-.61.32-1.19.66-1.77,1-.78-3.63-1.53-7.91-1.18-9.77C82,289.42,93.2,273,93.2,273l3.4-.47s-12.85,19.62-12.89,21.29C83.69,294.67,84,298.28,84.32,301.68Z" style="fill:#fff"></path></g></g></svg>
